<svg id="Capa_1" data-name="Capa 1" xmlns="http://www.w3.org/2000/svg" width="199.47" height="26" viewBox="0 0 199.47 26"><defs><style>.cls-1{fill:#0c2d5d;}</style></defs><title>logo-hyundai</title><polygon class="cls-1" points="74.46 3.28 74.46 10.92 65.81 10.92 65.81 3.28 61.04 3.28 61.04 23.32 65.81 23.32 65.81 15.26 74.46 15.26 74.46 23.32 79.23 23.32 79.23 3.28 78.99 3.28 74.46 3.28"/><polygon class="cls-1" points="96.72 3.28 91.73 11.21 86.74 3.28 81.11 3.28 89.35 16.38 89.35 23.32 94.11 23.32 94.11 16.38 102.35 3.28 101.91 3.28 96.72 3.28"/><path class="cls-1" d="M117.69,3.28V18a1,1,0,0,1-1,1H109V3.28h-4.77v20h14.09a4.12,4.12,0,0,0,3-1.09,4.1,4.1,0,0,0,1.1-3V3.28h-4.76Z"/><path class="cls-1" d="M141,3.28H126.87v20h4.76V7.62h7.66a1,1,0,0,1,1,1V23.31h4.76V7.38a4.06,4.06,0,0,0-1.1-3A4.05,4.05,0,0,0,141,3.28Z"/><path class="cls-1" d="M163.57,3.28H149.48v20h14.09a4.1,4.1,0,0,0,3-1.09,4.1,4.1,0,0,0,1.1-3V7.38a4.06,4.06,0,0,0-1.1-3A4,4,0,0,0,163.57,3.28Zm-.67,5.38v9.28a1,1,0,0,1-1,1h-7.64V7.62h7.61A1,1,0,0,1,162.9,8.66Z"/><path class="cls-1" d="M176,3.28a4,4,0,0,0-3,1.11,4.06,4.06,0,0,0-1.1,3V23.31h4.75V17.12h8.67v6.19h4.76v-20Zm9.33,4.34v5.16h-8.67V8.64a1,1,0,0,1,1-1Z"/><rect class="cls-1" x="194.7" y="3.28" width="4.77" height="20.03"/><path class="cls-1" d="M1.32,9a7,7,0,0,0-1,6.23,9.6,9.6,0,0,0,3.12,4.41,21.19,21.19,0,0,0,6.31,3.65A41.2,41.2,0,0,0,23.6,26a48.28,48.28,0,0,0,6.91-.25,45.14,45.14,0,0,0,7-1.32A28.31,28.31,0,0,0,46,20.67a12.93,12.93,0,0,0,4-4,7,7,0,0,0,.95-5.27,8.47,8.47,0,0,0-2.2-4A18.19,18.19,0,0,0,43,3.4,33.48,33.48,0,0,0,35.09.87,44.81,44.81,0,0,0,29.31.11C28.87.09,28.43,0,28,0H23.74l-.21.05C22.8.1,22.08.13,21.36.2a43.34,43.34,0,0,0-6.79,1.13A30.45,30.45,0,0,0,5.85,4.84,14,14,0,0,0,1.32,9m29.62,9a8.76,8.76,0,0,1-3,5.25,3.46,3.46,0,0,1-2.08.79c-.54,0-1.08.06-1.4.07a45.16,45.16,0,0,1-5.43-.45,40.15,40.15,0,0,1-5.33-1c-.6-.17-1.19-.37-1.76-.58s-.49-.48-.1-.8a31.49,31.49,0,0,1,12.72-6,12.45,12.45,0,0,1,3.7-.41A2.65,2.65,0,0,1,30.64,16a2.8,2.8,0,0,1,.3,1.94M42.8,8.18c.21-.39.41-.8.62-1.2s.54-.63,1-.37a7.48,7.48,0,0,1,4.36,5.79,3.87,3.87,0,0,1,0,.59,5.71,5.71,0,0,1-1.31,3.63A12.8,12.8,0,0,1,43.39,20a27.07,27.07,0,0,1-8.61,3c-.13,0-.38,0-.39-.08a.61.61,0,0,1,0-.48c.38-.55.8-1.09,1.22-1.64a49.37,49.37,0,0,0,3.9-6.21c1.13-2.1,2.17-4.25,3.24-6.39M22.49,3.3a4.72,4.72,0,0,1,3.42-1.44A36.17,36.17,0,0,1,35.85,3c.88.21,1.76.49,2.63.77a4,4,0,0,1,.78.38.45.45,0,0,1,.07.75,2.14,2.14,0,0,1-.57.46,51.54,51.54,0,0,1-10.84,5.15,16.94,16.94,0,0,1-4.46.92,4.2,4.2,0,0,1-1.92-.31,2.32,2.32,0,0,1-1.28-2.5,8.62,8.62,0,0,1,2.23-5.3m-7.36-.14A6.49,6.49,0,0,1,16.73,3c.45,0,.55.22.28.58-.74,1-1.51,1.93-2.24,2.92A45.64,45.64,0,0,0,8.35,18a4.62,4.62,0,0,1-.54,1.09.85.85,0,0,1-1.16.39A5,5,0,0,1,5,18.4a9.33,9.33,0,0,1-2.53-3.61A14.79,14.79,0,0,1,2.08,13a.11.11,0,0,1,.07,0,5.92,5.92,0,0,1,1.57-3.8,13.66,13.66,0,0,1,3.8-3,30.91,30.91,0,0,1,7.61-3"/></svg>