<svg id="Capa_1" data-name="Capa 1" xmlns="http://www.w3.org/2000/svg" viewBox="0 0 199.48 26.03">
  <defs>
    <style>
      .cls-1 {
        fill: #f7f7f7;
      }
    </style>
  </defs>
  <title>logo-hyundai-blanco</title>
  <polygon class="cls-1" points="74.47 3.28 74.47 10.92 65.82 10.92 65.82 3.28 61.05 3.28 61.05 23.32 65.82 23.32 65.82 15.26 74.47 15.26 74.47 23.32 79.24 23.32 79.24 3.28 79 3.28 74.47 3.28"/>
  <polygon class="cls-1" points="96.73 3.28 91.74 11.21 86.75 3.28 81.12 3.28 89.36 16.38 89.36 23.32 94.12 23.32 94.12 16.38 102.36 3.28 101.92 3.28 96.73 3.28"/>
  <path class="cls-1" d="M117.69,3.28V18a1,1,0,0,1-1,1H109V3.28h-4.77v20h14.09a4.12,4.12,0,0,0,3-1.09,4.1,4.1,0,0,0,1.1-3V3.28h-4.73Z" transform="translate(0.01)"/>
  <path class="cls-1" d="M141,3.28H126.87v20h4.76V7.62h7.66a1,1,0,0,1,1,1V23.31h4.76V7.38a4.06,4.06,0,0,0-1.1-3A4,4,0,0,0,141,3.28Z" transform="translate(0.01)"/>
  <path class="cls-1" d="M163.57,3.28H149.48v20h14.09a4.1,4.1,0,0,0,3-1.09,4.1,4.1,0,0,0,1.1-3V7.38a4.06,4.06,0,0,0-1.1-3A4,4,0,0,0,163.57,3.28ZM162.9,8.66v9.28a1,1,0,0,1-1,1h-7.64V7.62h7.61a1,1,0,0,1,1,1s0,0,0,.07h0Z" transform="translate(0.01)"/>
  <path class="cls-1" d="M176,3.28a4,4,0,0,0-3,1.11,4.06,4.06,0,0,0-1.1,3V23.31h4.75V17.12h8.67v6.19h4.76v-20Zm9.33,4.34v5.16h-8.67V8.64a1,1,0,0,1,1-1Z" transform="translate(0.01)"/>
  <rect class="cls-1" x="194.71" y="3.28" width="4.77" height="20.03"/>
  <path class="cls-1" d="M1.32,9a7,7,0,0,0-1,6.23,9.6,9.6,0,0,0,3.12,4.41,21.19,21.19,0,0,0,6.31,3.65A41.2,41.2,0,0,0,23.6,26a48.28,48.28,0,0,0,6.91-.25,45.14,45.14,0,0,0,7-1.32A28.31,28.31,0,0,0,46,20.67a12.93,12.93,0,0,0,4-4,7,7,0,0,0,1-5.27,8.47,8.47,0,0,0-2.2-4A18.19,18.19,0,0,0,43,3.4,33.48,33.48,0,0,0,35.09.87,44.81,44.81,0,0,0,29.31.11C28.87,0.09,28.43,0,28,0H23.74l-0.21.05C22.8,0.1,22.08.13,21.36,0.2a43.34,43.34,0,0,0-6.79,1.13A30.45,30.45,0,0,0,5.85,4.84,14,14,0,0,0,1.32,9m29.62,9a8.76,8.76,0,0,1-3,5.25,3.46,3.46,0,0,1-2.08.79c-0.54,0-1.08.06-1.4,0.07A45.16,45.16,0,0,1,19,23.66a40.15,40.15,0,0,1-5.33-1c-0.6-.17-1.19-0.37-1.76-0.58s-0.49-.48-0.1-0.8a31.49,31.49,0,0,1,12.72-6,12.45,12.45,0,0,1,3.7-.41A2.65,2.65,0,0,1,30.64,16a2.8,2.8,0,0,1,.3,1.94M42.8,8.18c0.21-.39.41-0.8,0.62-1.2a0.67,0.67,0,0,1,1-.37,7.48,7.48,0,0,1,4.36,5.79,3.87,3.87,0,0,1,0,.59,5.71,5.71,0,0,1-1.31,3.63A12.8,12.8,0,0,1,43.39,20a27.07,27.07,0,0,1-8.61,3,0.52,0.52,0,0,1-.39-0.08,0.61,0.61,0,0,1,0-.48c0.38-.55.8-1.09,1.22-1.64a49.37,49.37,0,0,0,3.9-6.21c1.13-2.1,2.17-4.25,3.24-6.39M22.49,3.3a4.72,4.72,0,0,1,3.42-1.44A36.17,36.17,0,0,1,35.85,3c0.88,0.21,1.76.49,2.63,0.77a4,4,0,0,1,.78.38,0.45,0.45,0,0,1,.07.75,2.14,2.14,0,0,1-.57.46,51.54,51.54,0,0,1-10.84,5.15,16.94,16.94,0,0,1-4.46.92,4.2,4.2,0,0,1-1.92-.31,2.32,2.32,0,0,1-1.28-2.5,8.62,8.62,0,0,1,2.23-5.3m-7.36-.14A6.49,6.49,0,0,1,16.73,3c0.45,0,.55.22,0.28,0.58-0.74,1-1.51,1.93-2.24,2.92A45.64,45.64,0,0,0,8.35,18a4.62,4.62,0,0,1-.54,1.09,0.85,0.85,0,0,1-1.13.4h0A5,5,0,0,1,5,18.4a9.33,9.33,0,0,1-2.53-3.61A14.79,14.79,0,0,1,2.08,13H2.15A5.92,5.92,0,0,1,3.72,9.2a13.66,13.66,0,0,1,3.8-3,30.91,30.91,0,0,1,7.61-3" transform="translate(0.01)"/>
</svg>
