<svg xmlns="http://www.w3.org/2000/svg" viewBox="0 0 203.31 153.04"><defs><style>.cls-1{fill:#464646;}</style></defs><title>162 puntos</title><g id="Capa_2" data-name="Capa 2"><g id="Ebene_1" data-name="Ebene 1"><path class="cls-1" d="M36.69,152.42c-2.35,0-5,0-7.67-.19-9.38-.49-13.7-13.19-13.88-13.73a2.53,2.53,0,0,1-.12-.77L15,125c0-3-.45-8-1.39-9.64A54.16,54.16,0,0,1,9,104.72a2.76,2.76,0,0,1-.1-.75L9.37,75.3c0-.3-.27-2.09-1.5-2.37A12.22,12.22,0,0,1,.35,67.76,2.49,2.49,0,0,1,0,66.48V54.28C0,48,4.25,45.83,6.5,45.6l.2,0,12.43-.33c2.44-3.37,10.75-14.88,20.71-28.63C52-.17,66-.06,67.35,0h60.23a2.5,2.5,0,1,1,0,5H67.14a20.47,20.47,0,0,0-7.48,1.59c-4,1.59-10.08,5.12-15.77,13C32,36,22.46,49.18,22.46,49.18a2.51,2.51,0,0,1-2,1L7,50.58c-.48.1-2,.68-2,3.7V65.67A7.29,7.29,0,0,0,9,68.05c4.06.9,5.32,4.87,5.42,7.06v.15L14,103.65a49,49,0,0,0,3.91,9.12c2,3.32,2.08,10.72,2.09,12.16L20,137.29c1.09,3,4.51,9.7,9.28,10,6.64.35,13.36.08,15,0a14.9,14.9,0,0,0,9.47-14.33,2.5,2.5,0,0,1,5,0,20,20,0,0,1-13.23,19.2,2.6,2.6,0,0,1-.62.11C44.66,152.24,41.24,152.42,36.69,152.42Z"/><path class="cls-1" d="M75.74,58.09a295,295,0,0,1-40.59-3.36,2.5,2.5,0,0,1,.79-4.94c.35.05,34.9,5.51,56.13,2.26A2.5,2.5,0,0,1,92.83,57,115.35,115.35,0,0,1,75.74,58.09Z"/><path class="cls-1" d="M42.28,132.34a2.5,2.5,0,0,1-.49-5c.31-.06,1.28-.25,53.44,0a2.5,2.5,0,0,1,0,5h0c-20.07-.08-50.51-.15-52.63,0Z"/><path class="cls-1" d="M58.31,108.7c-9.18,0-23.5-1.12-24.22-1.17l-.3,0c-.33-.06-8-1.74-9-13.94l0-.32.06-.32a13.7,13.7,0,0,1,5.71-8.39c3.5-2.26,8-2.72,13.35-1.38,14.5,3.62,24.2,14,24.61,14.47l.17.19.13.22c.24.39,2.25,3.9.64,7-1.06,2.06-3.24,3.24-6.47,3.5C61.72,108.65,60.12,108.7,58.31,108.7Zm-23.62-6.14c2.21.17,21,1.57,27.89,1,1.66-.14,2.3-.57,2.43-.8a3,3,0,0,0-.37-2C63.24,99.35,54.64,91,42.7,88c-3.94-1-7.09-.75-9.38.7a8.62,8.62,0,0,0-3.48,4.85C30.53,100.89,34.09,102.36,34.69,102.56Z"/><path class="cls-1" d="M192.36,137.74H174a2.5,2.5,0,0,1,0-5h18.37a6,6,0,0,0,5.95-6V24a6,6,0,0,0-5.95-6H105.1a6,6,0,0,0-5.95,6V126.79a6,6,0,0,0,5.95,6h18.15a2.5,2.5,0,0,1,0,5H105.1a11,11,0,0,1-10.95-11V24A11,11,0,0,1,105.1,13h87.26a11,11,0,0,1,10.95,11V126.79A11,11,0,0,1,192.36,137.74Z"/><path class="cls-1" d="M184.14,36.31H113.87a2.5,2.5,0,1,1,0-5h70.27a2.5,2.5,0,0,1,0,5Z"/><path class="cls-1" d="M184.14,67.75H113.87a2.5,2.5,0,0,1,0-5h70.27a2.5,2.5,0,0,1,0,5Z"/><path class="cls-1" d="M176.82,52H121.19a2.5,2.5,0,0,1,0-5h55.63a2.5,2.5,0,0,1,0,5Z"/><path class="cls-1" d="M176.82,83.47H121.19a2.5,2.5,0,0,1,0-5h55.63a2.5,2.5,0,0,1,0,5Z"/><path class="cls-1" d="M149,153a30,30,0,1,1,30-30A30.06,30.06,0,0,1,149,153Zm0-55a25,25,0,1,0,25,25A25.06,25.06,0,0,0,149,98Z"/><path class="cls-1" d="M144.75,138.87l-13.29-14.14a2.5,2.5,0,1,1,3.65-3.43l9.68,10.31,17.59-18.33a2.5,2.5,0,1,1,3.6,3.46Z"/></g></g></svg>