<svg xmlns="http://www.w3.org/2000/svg" width="96.875" height="72.907" viewBox="0 0 96.875 72.907"><defs><style>.a{fill:#012e5e;}</style></defs><g transform="translate(0 0.008)"><g transform="translate(0 -0.008)"><path class="a" d="M17.482,72.623c-1.12,0-2.382,0-3.655-.091C9.358,72.3,7.3,66.247,7.214,65.99a1.206,1.206,0,0,1-.057-.367l-.01-6.066a13.385,13.385,0,0,0-.662-4.593,25.807,25.807,0,0,1-2.2-5.07,1.315,1.315,0,0,1-.048-.357l.224-13.661c0-.143-.129-1-.715-1.129A5.823,5.823,0,0,1,.167,32.283,1.187,1.187,0,0,1,0,31.673V25.86c0-2.992,2.025-4.026,3.1-4.136h.1l5.923-.157c1.163-1.606,5.122-7.09,9.868-13.642C24.777-.085,31.448-.033,32.092,0h28.7a1.191,1.191,0,0,1,0,2.382h-28.8a9.754,9.754,0,0,0-3.564.758A17.256,17.256,0,0,0,20.913,9.33C15.248,17.15,10.7,23.43,10.7,23.43a1.2,1.2,0,0,1-.953.476L3.335,24.1c-.229.048-.953.324-.953,1.763v5.427a3.474,3.474,0,0,0,1.906,1.134,3.52,3.52,0,0,1,2.583,3.364v.071l-.2,13.528A23.348,23.348,0,0,0,8.534,53.73c.953,1.582.991,5.108,1,5.794v5.889c.519,1.429,2.149,4.622,4.422,4.765,3.164.167,6.366.038,7.147,0a7.1,7.1,0,0,0,4.512-6.828,1.191,1.191,0,1,1,2.382,0,9.53,9.53,0,0,1-6.3,9.149,1.239,1.239,0,0,1-.3.052C21.28,72.537,19.65,72.623,17.482,72.623Z" transform="translate(0 0.008)"/><path class="a" d="M53.388,53.728a140.567,140.567,0,0,1-19.341-1.6,1.192,1.192,0,0,1,.376-2.354c.167.024,16.629,2.625,26.745,1.077a1.193,1.193,0,0,1,.362,2.359,54.964,54.964,0,0,1-8.143.519Z" transform="translate(-17.298 -26.045)"/><path class="a" d="M40.837,129.657a1.2,1.2,0,0,1-.233-2.382c.148-.029.61-.119,25.464,0a1.191,1.191,0,1,1,0,2.382h0c-9.563-.038-24.068-.071-25.078,0Z" transform="translate(-20.691 -66.594)"/><path class="a" d="M40.762,94.948c-4.374,0-11.2-.534-11.541-.557h-.143c-.157-.029-3.812-.829-4.288-6.642V87.6l.029-.152a6.528,6.528,0,0,1,2.721-4,7.876,7.876,0,0,1,6.361-.658,25.947,25.947,0,0,1,11.726,6.895l.081.091.062.1a3.7,3.7,0,0,1,.3,3.335,3.487,3.487,0,0,1-3.083,1.668C42.387,94.925,41.624,94.948,40.762,94.948ZM29.507,92.023c1.053.081,10.006.748,13.289.476.791-.067,1.1-.272,1.158-.381a1.429,1.429,0,0,0-.176-.953,24.251,24.251,0,0,0-10.454-6.08,5.637,5.637,0,0,0-4.469.334A4.107,4.107,0,0,0,27.2,87.73c.329,3.5,2.025,4.2,2.311,4.293Z" transform="translate(-12.978 -43.15)"/><path class="a" d="M140.946,72.438H132.2a1.191,1.191,0,0,1,0-2.382h8.753a2.859,2.859,0,0,0,2.835-2.859V18.241a2.859,2.859,0,0,0-2.835-2.859H99.368a2.859,2.859,0,0,0-2.835,2.859V67.22a2.859,2.859,0,0,0,2.835,2.859h8.648a1.191,1.191,0,1,1,0,2.382H99.368A5.241,5.241,0,0,1,94.15,67.22V18.241A5.241,5.241,0,0,1,99.368,13h41.578a5.241,5.241,0,0,1,5.218,5.241V67.22a5.241,5.241,0,0,1-5.218,5.218Z" transform="translate(-49.288 -6.802)"/><path class="a" d="M146.044,33.692H112.561a1.191,1.191,0,0,1,0-2.382h33.483a1.191,1.191,0,0,1,0,2.382Z" transform="translate(-58.303 -16.387)"/><path class="a" d="M146.044,65.132H112.561a1.191,1.191,0,0,1,0-2.382h33.483a1.191,1.191,0,0,1,0,2.382Z" transform="translate(-58.303 -32.846)"/><path class="a" d="M146.388,49.382H119.881a1.191,1.191,0,1,1,0-2.382h26.507a1.191,1.191,0,1,1,0,2.382Z" transform="translate(-62.135 -24.601)"/><path class="a" d="M146.388,80.852H119.881a1.191,1.191,0,0,1,0-2.382h26.507a1.191,1.191,0,1,1,0,2.382Z" transform="translate(-62.135 -41.076)"/><path class="a" d="M133.295,121.59a14.295,14.295,0,1,1,14.295-14.295A14.295,14.295,0,0,1,133.295,121.59Zm0-26.207a11.912,11.912,0,1,0,11.912,11.912,11.912,11.912,0,0,0-11.912-11.912Z" transform="translate(-62.298 -48.683)"/><path class="a" d="M137.437,125.021l-6.333-6.738a1.193,1.193,0,1,1,1.739-1.634l4.612,4.913,8.381-8.734a1.191,1.191,0,1,1,1.715,1.649Z" transform="translate(-68.465 -58.847)"/></g></g></svg>