<svg xmlns="http://www.w3.org/2000/svg" viewBox="0 0 41.08 54.21"><defs><style>.cls-1{fill:#fff;}</style></defs><title>Asistencia</title><g id="Capa_2" data-name="Capa 2"><g id="Capa_1-2" data-name="Capa 1"><g id="Grupo_195" data-name="Grupo 195"><path id="Trazado_71" data-name="Trazado 71" class="cls-1" d="M8.09,37.05a19,19,0,0,1,4.75,5.11,117,117,0,0,1,6,11,2.06,2.06,0,0,0,1.7,1.1h0a1.81,1.81,0,0,0,1.7-1.1,118.76,118.76,0,0,1,6.09-11.2,18.93,18.93,0,0,1,4.5-4.86,20.28,20.28,0,0,0,8.28-16.44A20.61,20.61,0,0,0,20.44,0C20,0,19.51,0,19,.05a20.48,20.48,0,0,0-19,19.47A20.17,20.17,0,0,0,8.09,37.05ZM1.63,19.65A18.69,18.69,0,0,1,19,1.87h1.34a18.61,18.61,0,0,1,12.79,5A18.85,18.85,0,0,1,34,33.5a17.81,17.81,0,0,1-2.46,2.21,20.5,20.5,0,0,0-5,5.35A123.81,123.81,0,0,0,20.38,52.5a.13.13,0,0,1-.12.13h0c-.12,0-.12,0-.12-.13a96.25,96.25,0,0,0-6.09-11.2,20.26,20.26,0,0,0-5.12-5.6,19.91,19.91,0,0,1-7.3-16.06Z"/><path id="Trazado_72" data-name="Trazado 72" class="cls-1" d="M20.51,34A13.51,13.51,0,1,0,7,20.5,13.5,13.5,0,0,0,20.51,34Zm0-25.19A11.69,11.69,0,1,1,8.82,20.5,11.69,11.69,0,0,1,20.51,8.81Z"/><path id="Trazado_75" data-name="Trazado 75" class="cls-1" d="M23.92,17.09v-4a1.23,1.23,0,0,0-1.22-1.22H18.19A1.23,1.23,0,0,0,17,13.07v4H13a1.22,1.22,0,0,0-1.22,1.21v4.5A1.22,1.22,0,0,0,13,24h4v4a1.21,1.21,0,0,0,1.21,1.21H22.7A1.22,1.22,0,0,0,23.92,28V24h4.14a1.22,1.22,0,0,0,1.21-1.22V18.3a1.21,1.21,0,0,0-1.21-1.21Zm4.5,1.21v4.5a.33.33,0,0,1-.27.37h-4.6a.31.31,0,0,0-.36.27.14.14,0,0,0,0,.09V28a.33.33,0,0,1-.28.37h-4.6a.32.32,0,0,1-.36-.28V23.53a.32.32,0,0,0-.27-.36.17.17,0,0,0-.1,0h-4.5a.33.33,0,0,1-.37-.28V18.3a.32.32,0,0,1,.28-.36.14.14,0,0,1,.09,0h4.5a.33.33,0,0,0,.37-.28V13.07a.32.32,0,0,1,.27-.36.14.14,0,0,1,.09,0h4.51a.31.31,0,0,1,.36.27.14.14,0,0,1,0,.09v4.5a.33.33,0,0,0,.28.37h4.59a.39.39,0,0,1,.37.36Z"/></g></g></g></svg>