<svg xmlns="http://www.w3.org/2000/svg" viewBox="0 0 812.5 516.76"><defs><style>.cls-1{fill:none;stroke:#000;stroke-linejoin:round;stroke-width:8px;}</style></defs><title>Auto_escudo</title><g id="Capa_2" data-name="Capa 2"><g id="Capa_1-2" data-name="Capa 1"><path class="cls-1" d="M91,176.34c-14,0-27.94-.06-41.9,0-11.4.06-21.84-2.73-30.4-10.54-11-10.05-16.74-22.42-14-37.49,2-11.11,11.55-18.48,22.88-18.53q30.26-.15,60.5-.05c13.15,0,21.36,6.54,24.78,19.43a12.69,12.69,0,0,0,1.16,2c3.36-8.75,6.5-16.86,9.59-25q10.54-27.75,21.08-55.53c10.79-28.31,36.14-46.46,66.48-46.51q166-.28,332,0c30.65,0,56,18,66.9,46.57,4.86,12.7,9.52,25.46,14.34,38.39l-35.45,5.58C585,84.41,581.1,74,577,63.73c-6.23-15.51-18.54-23.89-35.14-23.9q-135.75,0-271.49,0c-18.65,0-37.31,0-56,0-18.95.07-30.42,8.09-37.21,25.87Q157.07,118.39,137,171.07c-.57,1.5-1,3.05-1.81,5.45H485.43v7.11c0,49.67.18,99.33,0,149a166,166,0,0,0,17.34,75.59c.36.73.61,1.51,1.2,3H139.61c-.12,2.43-.27,4.19-.28,6,0,14.83.07,29.66,0,44.5-.14,20.26-12.14,32.19-32.44,32.25q-29.74.09-59.5,0c-19.27-.08-31.49-12.41-31.49-31.63q0-85,0-170c0-13.58-1.18-27.29,3.07-40.59a61.6,61.6,0,0,1,18.82-28.9c15.6-13.28,31.35-26.39,47-39.58,2.26-1.9,4.46-3.86,6.68-5.79Z"/><path class="cls-1" d="M123.93,327.8a40.91,40.91,0,1,0-.48-81.82c-22.16.16-40.73,18.86-40.67,41A41.17,41.17,0,0,0,123.93,327.8Z"/><path class="cls-1" d="M808.42,254.54c0,26.47-.27,53,.06,79.42.57,45.59-16.66,83.52-48.63,115.3-28,27.77-61.53,46.91-97,63.06a7.6,7.6,0,0,1-5.6-.21C632.81,501,609.3,488.4,587.66,472.28c-18.19-13.55-34.49-28.76-47.71-47.2-18.72-26.12-28-55.34-28-87.42-.11-57.31,0-114.63-.12-171.94a12.09,12.09,0,0,1,4.4-10c17-14.61,36.38-24.82,57.66-31.91,34-11.31,68.85-14.91,104.33-12.85,39.56,2.3,77.29,11.25,111.05,33.28,19.13,12.48,19.19,12.38,19.19,34.87Z"/><line class="cls-1" x1="660.14" y1="110.42" x2="660.14" y2="512.32"/></g></g></svg>