<svg xmlns="http://www.w3.org/2000/svg" width="101.662" height="104.246" viewBox="0 0 101.662 104.246"><defs><style>.a{fill:#0f2647;}</style></defs><g transform="translate(-7.553 -1.875)"><g transform="translate(2298.479 271.946)"><g transform="translate(-2290.926 -236.66)"><path class="a" d="M-2203.456-73.1a1.228,1.228,0,0,0,1.028-1.4,1.228,1.228,0,0,0-1.4-1.027c-10.409,1.593-27.347-1.084-27.519-1.108a1.226,1.226,0,0,0-1.388,1.006,1.226,1.226,0,0,0,1,1.417,144.666,144.666,0,0,0,19.9,1.646h0A56.574,56.574,0,0,0-2203.456-73.1Z" transform="translate(2248.968 97.148)"/><path class="a" d="M-2225.882-11.8a26.7,26.7,0,0,0-12.065-7.095,8.1,8.1,0,0,0-6.545.677,6.719,6.719,0,0,0-2.8,4.116l-.03.156v.153c.49,5.981,4.25,6.8,4.412,6.834h.147c.351.024,7.375.573,11.875.573.887,0,1.672-.024,2.289-.071a3.587,3.587,0,0,0,3.172-1.716,3.806,3.806,0,0,0-.309-3.432l-.063-.1Zm-1.721,2.5c-.06.112-.378.323-1.191.392-3.378.28-12.59-.406-13.674-.49h0c-.294-.1-2.04-.816-2.378-4.417a4.227,4.227,0,0,1,1.7-2.378,5.8,5.8,0,0,1,4.6-.344,24.954,24.954,0,0,1,10.757,6.256A1.469,1.469,0,0,1-2227.6-9.295Z" transform="translate(2259.476 55.782)"/><path class="a" d="M-2064.286-76.631c-.172.025-17.111,2.7-27.519,1.108a1.228,1.228,0,0,0-1.4,1.027,1.228,1.228,0,0,0,1.027,1.4,56.572,56.572,0,0,0,8.379.534h0a144.666,144.666,0,0,0,19.9-1.646,1.227,1.227,0,0,0,1-1.417A1.226,1.226,0,0,0-2064.286-76.631Z" transform="translate(2148.328 97.148)"/><path class="a" d="M-2036.54-18.893a26.7,26.7,0,0,0-12.065,7.095l-.083.094-.063.1a3.806,3.806,0,0,0-.309,3.432,3.587,3.587,0,0,0,3.172,1.716c.617.047,1.4.071,2.29.071,4.5,0,11.524-.549,11.875-.573h.147c.162-.03,3.923-.853,4.413-6.834v-.153l-.03-.156a6.717,6.717,0,0,0-2.8-4.116A8.1,8.1,0,0,0-2036.54-18.893Zm6.9,5.083c-.338,3.6-2.083,4.322-2.378,4.417h0c-1.083.083-10.3.77-13.674.49-.814-.069-1.132-.28-1.191-.392a1.467,1.467,0,0,1,.181-.981,24.952,24.952,0,0,1,10.756-6.256,5.8,5.8,0,0,1,4.6.344A4.225,4.225,0,0,1-2029.645-13.81Z" transform="translate(2116.673 55.782)"/><g transform="translate(0 0)"><path class="a" d="M-2244.235-91.666c-25.573-.123-26.049-.03-26.2,0a1.235,1.235,0,0,0-1.023,1.245,1.235,1.235,0,0,0,1.263,1.206h.158c.37-.026,2.5-.038,5.525-.042a1.208,1.208,0,0,0-.056.346,7.305,7.305,0,0,1-4.643,7.026c-.8.039-4.1.172-7.354,0-2.339-.147-4.016-3.433-4.55-4.9v-6.059c-.009-.706-.048-4.334-1.029-5.962a24.068,24.068,0,0,1-1.917-4.469l.206-13.92v-.073a3.622,3.622,0,0,0-2.658-3.461,3.576,3.576,0,0,1-1.961-1.167v-5.584c0-1.481.745-1.765.98-1.814l6.6-.2a1.235,1.235,0,0,0,.98-.49l10.509-14.508a17.768,17.768,0,0,1,2.8-3.211q-.485-1.223-.857-2.5a23.4,23.4,0,0,0-3.917,4.264c-4.883,6.742-8.957,12.385-10.153,14.037l-6.095.162h-.1c-1.106.113-3.189,1.177-3.189,4.256v5.981a1.218,1.218,0,0,0,.171.627,5.994,5.994,0,0,0,3.683,2.535c.6.133.735,1.015.735,1.162l-.23,14.056a1.352,1.352,0,0,0,.049.367,26.556,26.556,0,0,0,2.264,5.217,13.784,13.784,0,0,1,.681,4.726l.01,6.242a1.239,1.239,0,0,0,.059.377c.088.265,2.206,6.493,6.8,6.731,1.31.094,2.608.094,3.761.094,2.231,0,3.908-.088,4.028-.074a1.271,1.271,0,0,0,.309-.054,9.806,9.806,0,0,0,6.483-9.414h0a1.211,1.211,0,0,0-.056-.346c5.363,0,12.444.021,17.939.043a1.226,1.226,0,0,0,1.226-1.226A1.225,1.225,0,0,0-2244.235-91.666Z" transform="translate(2290.926 150.206)"/><path class="a" d="M-2053.379-131.743h-.1l-6.094-.162c-1.2-1.652-5.27-7.3-10.154-14.037a23.421,23.421,0,0,0-3.916-4.264q-.372,1.275-.858,2.5a17.738,17.738,0,0,1,2.8,3.211c5.829,8.046,10.509,14.508,10.509,14.508a1.235,1.235,0,0,0,.98.49l6.6.2c.236.049.98.333.98,1.814v5.584a3.575,3.575,0,0,1-1.961,1.167,3.622,3.622,0,0,0-2.657,3.461v.073l.206,13.92a24.068,24.068,0,0,1-1.917,4.469c-.981,1.628-1.02,5.256-1.029,5.962v6.059c-.534,1.47-2.211,4.756-4.55,4.9-3.256.172-6.55.039-7.354,0a7.305,7.305,0,0,1-4.643-7.026,1.208,1.208,0,0,0-.056-.346c3.029,0,5.156.016,5.525.042h.158a1.235,1.235,0,0,0,1.263-1.206,1.234,1.234,0,0,0-1.023-1.245c-.152-.03-.628-.123-26.2,0a1.226,1.226,0,0,0-1.226,1.225,1.226,1.226,0,0,0,1.226,1.226c5.5-.022,12.576-.042,17.939-.043a1.2,1.2,0,0,0-.056.346h0a9.806,9.806,0,0,0,6.482,9.414,1.281,1.281,0,0,0,.309.054c.121-.014,1.8.074,4.028.074,1.152,0,2.451,0,3.761-.094,4.6-.239,6.716-6.467,6.8-6.731a1.223,1.223,0,0,0,.058-.377l.01-6.242a13.784,13.784,0,0,1,.681-4.726,26.539,26.539,0,0,0,2.264-5.217,1.353,1.353,0,0,0,.05-.367l-.231-14.056c0-.147.133-1.029.736-1.162a5.993,5.993,0,0,0,3.683-2.535,1.225,1.225,0,0,0,.171-.627v-5.981C-2050.19-130.566-2052.273-131.63-2053.379-131.743Z" transform="translate(2151.852 150.206)"/></g></g><g transform="translate(-2264.89 -270.071)"><g transform="translate(0)"><path class="a" d="M-2172.675-219.02a24.4,24.4,0,0,1-17.307-7.181,25.575,25.575,0,0,1-7.535-18.27,25.775,25.775,0,0,1,7.542-18.382,24.329,24.329,0,0,1,17.292-7.219h.017a24.22,24.22,0,0,1,17.5,7.475,25.8,25.8,0,0,1,7.239,18.017h0a25.785,25.785,0,0,1-7.14,18.043,24.241,24.241,0,0,1-17.479,7.515Zm-.007-48.542a21.836,21.836,0,0,0-15.52,6.484,23.284,23.284,0,0,0-6.807,16.607,23.083,23.083,0,0,0,6.8,16.492,21.909,21.909,0,0,0,15.538,6.451h.115a21.752,21.752,0,0,0,15.684-6.745,23.288,23.288,0,0,0,6.439-16.3h0c-.024-12.667-10-22.98-22.231-22.988Zm-3.082,43.675a1.254,1.254,0,0,1-.886-.367,1.253,1.253,0,0,1-.368-.887l0-3.132-7.575-2.977a1.255,1.255,0,0,1-.733-.775,1.255,1.255,0,0,1,.129-1.058l2.8-4.471a1.254,1.254,0,0,1,1.42-.536c.764.227,1.506.474,2.223.713a25.364,25.364,0,0,0,4.622,1.234,7.893,7.893,0,0,0,4.065-.824,1.11,1.11,0,0,0,.721-.792,1.249,1.249,0,0,0-.537-1.06,15.359,15.359,0,0,0-2.942-1.789c-.31-.159-.619-.318-.923-.481-.688-.368-1.393-.7-2.139-1.049a26.192,26.192,0,0,1-4.1-2.237,9.223,9.223,0,0,1-4.073-8.442,8.382,8.382,0,0,1,5.188-6.9,20.613,20.613,0,0,0,2.086-1.062c.017-.508.037-1.233.043-1.937,0-.076-.008-.181-.016-.3-.014-.216-.031-.486-.031-.765a1.254,1.254,0,0,1,1.253-1.255l6.147-.005h0a1.256,1.256,0,0,1,.886.366,1.255,1.255,0,0,1,.368.887l0,3.381,6.516,2.382a1.256,1.256,0,0,1,.763.794,1.254,1.254,0,0,1-.158,1.09l-3.035,4.451a1.254,1.254,0,0,1-1.368.5l-1.592-.437c-1.592-.438-3.1-.851-4.6-1.251a2.4,2.4,0,0,0-.37-.006l-.174,0c-1.914.029-3.016.634-3.076,1.06-.106.75.147,1.024,1.593,1.724.218.106.434.21.637.319,1.088.578,2.251,1.1,3.376,1.608,1.21.545,2.462,1.109,3.667,1.758,3.148,1.695,4.873,4.122,5.125,7.214a9.377,9.377,0,0,1-6.449,9.8c-1.273.469-1.424.873-1.28,2.02a9.775,9.775,0,0,1,.037,1.528c-.006.223-.013.457-.012.706a1.255,1.255,0,0,1-.366.887,1.255,1.255,0,0,1-.887.368l-5.966.005Zm-6.508-9.144,6.963,2.736a1.254,1.254,0,0,1,.8,1.166l0,2.732,3.483,0a5.11,5.11,0,0,0-.029-.67c-.3-2.391.595-3.836,2.9-4.686a6.871,6.871,0,0,0,4.816-7.238c-.181-2.221-1.428-3.925-3.813-5.209-1.127-.607-2.338-1.152-3.508-1.679s-2.363-1.064-3.523-1.68c-.177-.094-.365-.185-.554-.276-1.259-.61-3.366-1.63-2.983-4.333.274-1.937,2.39-3.169,5.521-3.217l.142,0a3.667,3.667,0,0,1,1.085.088c1.518.4,3.026.818,4.623,1.257l.727.2,1.623-2.38-5.825-2.13a1.254,1.254,0,0,1-.824-1.177l0-3-3.593,0c-.007.644-.024,1.269-.037,1.694-.008.253-.016.464-.022.612a1.347,1.347,0,0,1-.736,1.325l-.041.024a23.968,23.968,0,0,1-2.786,1.456,5.935,5.935,0,0,0-3.705,4.856,6.75,6.75,0,0,0,3.029,6.144,23.922,23.922,0,0,0,3.718,2.011c.743.349,1.511.709,2.257,1.108.292.156.589.309.886.461a17.466,17.466,0,0,1,3.42,2.108,3.686,3.686,0,0,1,1.4,3.315,3.565,3.565,0,0,1-2.161,2.73,10.55,10.55,0,0,1-5.436,1.032,27.2,27.2,0,0,1-5.09-1.342c-.406-.135-.819-.273-1.237-.407Z" transform="translate(2197.517 270.071)"/></g></g></g></g></svg>