<svg xmlns="http://www.w3.org/2000/svg" viewBox="0 0 755.16 662.94"><defs><style>.cls-1{fill:none;stroke:#000;stroke-linejoin:round;stroke-width:8px;}</style></defs><title>auto_vende</title><g id="Capa_2" data-name="Capa 2"><g id="Capa_1-2" data-name="Capa 1"><path class="cls-1" d="M125.93,492.75a40.92,40.92,0,1,0-.48-81.83c-22.16.16-40.73,18.86-40.67,41A41.18,41.18,0,0,0,125.93,492.75Z"/><path class="cls-1" d="M614.91,492.75a40.92,40.92,0,1,0-.48-81.83c-22.17.16-40.74,18.86-40.67,41A41.18,41.18,0,0,0,614.91,492.75Z"/><g id="t7T2V2"><path class="cls-1" d="M526.07,156.91c.16,84.88-65.23,152.87-147.43,153.29-82.58.43-149.52-67.89-149.55-152.63S295.68,3.94,377.93,4C459.79,4.06,525.91,72.3,526.07,156.91ZM396,279.46c0-5,.41-9.13-.09-13.11-1.36-10.78,1.54-16.86,13.19-21.15,24.85-9.15,37.46-30,35.53-53.72-1.53-18.7-12.76-30.87-28.19-39.18-14.43-7.77-29.92-13.53-44.39-21.21-8.41-4.47-20.07-7.75-18.19-21,1.16-8.26,12.33-13.27,27.11-13.49a20.78,20.78,0,0,1,5.59.27c12.66,3.36,25.28,6.87,39.13,10.66Q433.61,96,444.87,79.47L398.58,62.55l0-26.86-38.78,0c0,2.68.31,5.39.3,6.81-.06,8.39-.43,16.8-.44,16.77a147.19,147.19,0,0,1-17.7,9.33c-35.73,15.77-37.59,60.42-5.65,83.08C348,160,362,165.07,374.83,171.92c8.81,4.72,18.26,8.89,25.77,15.26,9.3,7.9,8.07,19.84-3,24.91-9.09,4.17-20.3,7.11-30,5.85C352.94,216,338.76,210,323.24,205.4l-17.67,28.21,52.8,20.74,0,25.15Z"/></g><path class="cls-1" d="M736.18,416.66a61.59,61.59,0,0,0-18.83-28.9c-15.6-13.28-31.34-26.38-47-39.58-2.25-1.89-4.45-3.86-6.68-5.79l.53-1.11c14,0,27.93-.06,41.9,0,11.39.06,21.83-2.74,30.39-10.54,11-10.05,16.74-22.43,14-37.49-2-11.12-11.56-18.48-22.89-18.54q-30.26-.14-60.5,0c-13.14,0-21.35,6.53-24.77,19.42a11.82,11.82,0,0,1-1.17,2c-3.36-8.75-6.49-16.85-9.58-25Q621,243.37,610.49,215.6c-10.47-27.45-34.61-45.35-63.72-46.46a169.7,169.7,0,0,1-5.06,35.68,51,51,0,0,1,10,1.09c11.61,2.75,20.33,10.53,25.24,22.77,4.13,10.28,8,20.68,12,30.94H589L618.15,336c.57,1.5,1,3.05,1.8,5.45H135.2c.79-2.4,1.24-3.95,1.81-5.45q14.55-38.2,29.13-76.4h.09c4-10.26,7.82-20.66,12-30.94,4.92-12.24,13.63-20,25.24-22.77a51.19,51.19,0,0,1,10-1.09,169.06,169.06,0,0,1-5.07-35.68c-29.11,1.11-53.25,19-63.71,46.46q-10.57,27.75-21.09,55.53c-3.08,8.12-6.22,16.22-9.58,25a12.23,12.23,0,0,1-1.16-2c-3.42-12.89-11.63-19.4-24.78-19.42q-30.24-.06-60.5,0c-11.33.06-20.87,7.42-22.88,18.54-2.74,15.06,3,27.44,14,37.49,8.56,7.8,19,10.6,30.4,10.54,14-.08,27.93,0,41.9,0l.52,1.11c-2.22,1.93-4.42,3.9-6.68,5.79-15.67,13.2-31.42,26.3-47,39.58A61.65,61.65,0,0,0,19,416.66c-4.25,13.31-3,27-3.07,40.6q-.15,85,0,170c0,19.22,12.22,31.56,31.49,31.63q29.76.12,59.5,0c20.3-.06,32.3-12,32.44-32.25.1-14.83,0-29.67,0-44.5,0-1.76.16-3.53.28-5.95H615.54c.12,2.42.28,4.19.28,5.95,0,14.83-.06,29.67,0,44.5.13,20.27,12.13,32.19,32.43,32.25q29.75.09,59.5,0c19.28-.07,31.5-12.41,31.5-31.63q0-85,0-170C739.22,443.67,740.43,430,736.18,416.66Z"/></g></g></svg>