<svg xmlns="http://www.w3.org/2000/svg" width="13.192" height="15.077" viewBox="0 0 13.192 15.077"><defs><style>.a{fill:#012e5e;}</style></defs><path class="a" d="M12.938,10.668c-.569-.611-1.633-1.531-1.633-4.543A4.65,4.65,0,0,0,7.537,1.556V.942a.942.942,0,1,0-1.883,0v.614A4.65,4.65,0,0,0,1.886,6.125c0,3.012-1.065,3.932-1.633,4.543A.92.92,0,0,0,0,11.308a.943.943,0,0,0,.945.942h11.3a.943.943,0,0,0,.945-.942A.92.92,0,0,0,12.938,10.668Zm-10.95.168A7.374,7.374,0,0,0,3.3,6.142c0-.006,0-.011,0-.017a3.3,3.3,0,0,1,6.6,0c0,.006,0,.011,0,.017A7.373,7.373,0,0,0,11.2,10.836ZM6.6,15.077a1.884,1.884,0,0,0,1.884-1.885H4.712A1.884,1.884,0,0,0,6.6,15.077Z" transform="translate(0.001)"/></svg>