<svg xmlns="http://www.w3.org/2000/svg" width="18.62" height="13.965" viewBox="0 0 18.62 13.965"><defs><style>.a{fill:#f3f3f3;}</style></defs><path class="a" d="M18.187,68.073H16.01L15.4,66.56A4.053,4.053,0,0,0,11.623,64H7a4.054,4.054,0,0,0-3.782,2.56l-.605,1.513H.44a.436.436,0,0,0-.423.542l.218.873a.436.436,0,0,0,.423.331h.73a2.311,2.311,0,0,0-.8,1.746V73.31a2.309,2.309,0,0,0,.582,1.525V76.8a1.164,1.164,0,0,0,1.164,1.164H3.495A1.164,1.164,0,0,0,4.659,76.8V75.638h9.31V76.8a1.164,1.164,0,0,0,1.164,1.164H16.3A1.164,1.164,0,0,0,17.46,76.8V74.835a2.307,2.307,0,0,0,.582-1.525V71.565a2.312,2.312,0,0,0-.8-1.746h.73a.436.436,0,0,0,.423-.331l.218-.873a.437.437,0,0,0-.424-.542Zm-12.8-.648A1.746,1.746,0,0,1,7,66.328h4.619a1.746,1.746,0,0,1,1.621,1.1l.725,1.812H4.659ZM3.495,73.3a1.16,1.16,0,1,1,0-2.32,2.239,2.239,0,0,1,1.746,1.74C5.241,73.419,4.193,73.3,3.495,73.3Zm11.638,0c-.7,0-1.746.116-1.746-.58a2.239,2.239,0,0,1,1.746-1.74,1.16,1.16,0,1,1,0,2.32Z" transform="translate(-0.004 -64)"/></svg>