<svg xmlns="http://www.w3.org/2000/svg" width="83.56" height="110" viewBox="0 0 83.56 110"><defs><style>.a{fill:#012e5e;}</style></defs><g transform="translate(0.019 -0.004)"><g transform="translate(-0.018 0.004)"><path class="a" d="M41.771,83.544a9.936,9.936,0,0,1-7.044-2.916l-4.2-4.195a7.446,7.446,0,0,0-5.315-2.2H19.268a9.967,9.967,0,0,1-9.954-9.96V58.333a7.482,7.482,0,0,0-2.2-5.321l-4.2-4.2a9.96,9.96,0,0,1,0-14.106l4.2-4.195a7.5,7.5,0,0,0,2.2-5.321V19.277a9.967,9.967,0,0,1,9.954-9.96h5.942a7.47,7.47,0,0,0,5.315-2.2l4.2-4.2a9.979,9.979,0,0,1,14.082,0l4.2,4.2a7.476,7.476,0,0,0,5.321,2.2h5.936a9.967,9.967,0,0,1,9.954,9.96v5.936a7.5,7.5,0,0,0,2.2,5.321l4.2,4.195a9.96,9.96,0,0,1,0,14.082l-4.2,4.2a7.482,7.482,0,0,0-2.2,5.321v5.936a9.967,9.967,0,0,1-9.954,9.96H58.331a7.446,7.446,0,0,0-5.321,2.2l-4.2,4.195A9.93,9.93,0,0,1,41.771,83.544Zm-22.5-71.793a7.531,7.531,0,0,0-7.519,7.525v5.936a9.875,9.875,0,0,1-2.922,7.056l-4.195,4.2a7.525,7.525,0,0,0,0,10.642l4.195,4.195a9.9,9.9,0,0,1,2.922,7.044v5.936a7.531,7.531,0,0,0,7.519,7.525h5.942a9.881,9.881,0,0,1,7.05,2.9l4.2,4.195a7.525,7.525,0,0,0,10.636,0l4.2-4.195a9.9,9.9,0,0,1,7.044-2.916h5.936A7.531,7.531,0,0,0,71.8,64.269V58.333a9.9,9.9,0,0,1,2.922-7.044l4.195-4.195a7.525,7.525,0,0,0,0-10.642l-4.207-4.183a9.875,9.875,0,0,1-2.922-7.038V19.277a7.531,7.531,0,0,0-7.519-7.525H58.331a9.9,9.9,0,0,1-7.044-2.916l-4.2-4.2a7.525,7.525,0,0,0-10.636,0l-4.189,4.2a9.894,9.894,0,0,1-7.05,2.916Z" transform="translate(0.018 -0.004)"/><path class="a" d="M51.78,77.919A26.179,26.179,0,1,1,77.929,51.77,26.18,26.18,0,0,1,51.78,77.919Zm0-49.869A23.744,23.744,0,1,0,75.494,51.794,23.744,23.744,0,0,0,51.78,28.05Z" transform="translate(-9.991 -10.001)"/><path class="a" d="M30.5,156.912V119.92h2.441V152.6L52.485,140.8V134.66H54.92v7.513Z" transform="translate(-11.919 -46.912)"/><path class="a" d="M91.036,156.912,66.61,142.173V134.66h2.435V140.8L88.6,152.6V119.92h2.435Z" transform="translate(-26.045 -46.912)"/><path class="a" d="M56.144,72.179l-.816-1.023c-7.708-9.68-7.708-9.991-7.708-10.508a1.218,1.218,0,0,1,2.362-.432c.463.8,3.781,5.059,6.441,8.4L71.139,55.126a1.231,1.231,0,1,1,1.65,1.826ZM50.055,60.612ZM50.055,60.612Z" transform="translate(-18.616 -21.442)"/></g></g></svg>