<svg xmlns="http://www.w3.org/2000/svg" width="16.344" height="16.344" viewBox="0 0 16.344 16.344"><defs><style>.a{fill:#f3f3f3;}</style></defs><path class="a" d="M16.172,8a8.172,8.172,0,1,0,8.172,8.172A8.172,8.172,0,0,0,16.172,8Zm0,1.582a6.59,6.59,0,1,1-6.59,6.59,6.587,6.587,0,0,1,6.59-6.59m4.62,4.292-.743-.749a.4.4,0,0,0-.559,0l-4.658,4.62-1.97-1.986a.4.4,0,0,0-.559,0l-.749.743a.4.4,0,0,0,0,.559l2.991,3.016a.4.4,0,0,0,.559,0l5.687-5.641A.4.4,0,0,0,20.792,13.874Z" transform="translate(-8 -8)"/></svg>