<?xml version="1.0" encoding="utf-8"?>
<!-- Generator: Adobe Illustrator 19.2.1, SVG Export Plug-In . SVG Version: 6.00 Build 0)  -->
<svg version="1.1" id="Capa_1" xmlns="http://www.w3.org/2000/svg" xmlns:xlink="http://www.w3.org/1999/xlink" x="0px" y="0px"
	 viewBox="0 0 126 116.9" style="enable-background:new 0 0 126 116.9;" xml:space="preserve">
<style type="text/css">
	.st0{fill:#FFFFFF;}
</style>
<title>clock</title>
<g id="time-07">
	<path class="st0" d="M26.2,70.1h4c0.2,3,0.6,6.1,1.3,9h-4C26.7,76.1,26.3,73.1,26.2,70.1z M125.3,67.3c0,27.4-22.3,49.6-49.7,49.6
		c-19.2,0-36.7-11.2-44.9-28.6H35c11.7,22.4,39.4,31.1,61.8,19.4s31.1-39.4,19.4-61.8S76.8,14.8,54.4,26.5
		c-6.7,3.5-12.5,8.6-16.7,14.9h-4.6c2.3-3.7,5-7.1,8.2-10.1l-3.2-3.1l-2.9,2.9l-2.7-2.7l8.5-8.5l2.7,2.7l-2.9,2.9l3.4,3.4
		c6.9-5.4,14.9-9.1,23.6-10.6v-4.8h-5c-1,0-1.8-0.8-1.9-1.8c0,0,0-0.1,0-0.1V2.5c0-1,0.8-1.8,1.8-1.9c0,0,0.1,0,0.1,0h25.7
		c1,0,1.8,0.8,1.9,1.8c0,0,0,0.1,0,0.1v9.3c0,1-0.8,1.8-1.8,1.9c0,0-0.1,0-0.1,0h-5v5C107.5,22.3,125.3,43,125.3,67.3z M64.9,9.6
		h21.7V4.1H64.9V9.6L64.9,9.6z M75.8,17.9c1.3,0,2.7,0,4,0.3v-4.5h-7.7v4.5C73.3,17.9,74.5,17.8,75.8,17.9z M30.4,60.2
		c0.5-3.1,1.3-6.1,2.4-9h-3.9c-1.1,2.9-1.8,5.9-2.1,9H30.4z M44.2,44.6H11.6v3.7h32.6L44.2,44.6L44.2,44.6z M37.4,63.2H0v3.7h37.4
		L37.4,63.2L37.4,63.2z M41.9,82H9.3v3.7h32.6V82L41.9,82z M75.8,75.9c-4.5,0-8.2-3.7-8.2-8.2c0-4.5,3.7-8.2,8.2-8.2
		c3.8-0.1,7.2,2.6,8,6.4H110v3.7H83.7C82.8,73.2,79.6,75.8,75.8,75.9z M75.8,71.9c2.5,0,4.5-2,4.5-4.5c0-2.5-2-4.5-4.5-4.5
		c-2.5,0-4.5,2-4.5,4.4c-0.1,2.5,1.9,4.5,4.4,4.6C75.7,71.9,75.7,71.9,75.8,71.9L75.8,71.9z"/>
</g>
</svg>
