<svg id="Capa_1" data-name="Capa 1" xmlns="http://www.w3.org/2000/svg" viewBox="0 0 86.53 80.31">
  <defs>
    <style>
      .cls-1 {
        fill: #fff;
      }
    </style>
  </defs>
  <title>clock</title>
  <g id="time-07">
    <path class="cls-1" d="M19.1,51.87h2.74a34,34,0,0,0,.91,6.22H20A24.37,24.37,0,0,1,19.1,51.87ZM87.52,50A34.27,34.27,0,0,1,22.21,64.49h2.93A31.63,31.63,0,1,0,27,32.11H23.85a34.89,34.89,0,0,1,5.67-7L27.33,23l-2,2-1.83-1.83,5.85-5.85,1.83,1.83-2,2,2.38,2.38A36.72,36.72,0,0,1,47.82,16.2V12.9H44.34a1.25,1.25,0,0,1-1.28-1.28V5.22a1.25,1.25,0,0,1,1.28-1.28H62.09a1.25,1.25,0,0,1,1.28,1.28v6.4a1.25,1.25,0,0,1-1.28,1.28H58.61v3.48A34.08,34.08,0,0,1,87.52,50ZM45.81,10.16h15V6.32h-15v3.84h0Zm7.5,5.67a13.85,13.85,0,0,1,2.74.18V12.9H50.75V16A11.25,11.25,0,0,1,53.31,15.83ZM22,45.1a34.53,34.53,0,0,1,1.65-6.22H20.93a23.73,23.73,0,0,0-1.46,6.22H22Zm9.51-10.79H9v2.56h22.5V34.31ZM26.78,47.11H1v2.56h25.8V47.11Zm3.11,13H7.39v2.56h22.5V60.1ZM53.31,55.9a5.67,5.67,0,1,1,0-11.34,5.52,5.52,0,0,1,5.49,4.39H76.91v2.56H58.79A5.7,5.7,0,0,1,53.31,55.9Zm0-2.74A3.11,3.11,0,1,0,50.2,50,3.08,3.08,0,0,0,53.31,53.15Z" transform="translate(-0.98 -3.94)"/>
  </g>
</svg>
