<svg id="Capa_1" data-name="Capa 1" xmlns="http://www.w3.org/2000/svg" viewBox="0 0 86.52 80.3">
  <defs>
    <style>
      .cls-1 {
        fill: #012e5e;
      }
    </style>
  </defs>
  <title>clock-color</title>
  <g id="time-07">
    <path class="cls-1" d="M18.12,47.93h2.74a34,34,0,0,0,.91,6.22H19A24.37,24.37,0,0,1,18.12,47.93Zm68.42-1.87A34.27,34.27,0,0,1,21.23,60.55h2.93A31.63,31.63,0,1,0,26,28.17H22.87a34.89,34.89,0,0,1,5.67-7l-2.19-2.11-2,2-1.83-1.83,5.85-5.85,1.83,1.83-2,2,2.38,2.38a36.72,36.72,0,0,1,16.26-7.33V9H43.36a1.25,1.25,0,0,1-1.28-1.22s0,0,0-.06V1.28A1.25,1.25,0,0,1,43.3,0H61.11a1.25,1.25,0,0,1,1.28,1.22s0,0,0,.06v6.4A1.25,1.25,0,0,1,61.17,9H57.63v3.48A34.08,34.08,0,0,1,86.54,46.06ZM44.83,6.22h15V2.38h-15V6.22h0Zm7.5,5.67a13.85,13.85,0,0,1,2.74.18V9h-5.3v3.1A11.25,11.25,0,0,1,52.33,11.89ZM21,41.16a34.53,34.53,0,0,1,1.65-6.22H20a23.73,23.73,0,0,0-1.46,6.22H21Zm9.51-10.79H8v2.56h22.5V30.37h0ZM25.8,43.17H0v2.56h25.8V43.17h0Zm3.11,13H6.41v2.56h22.5V56.16h0ZM52.33,52a5.67,5.67,0,1,1,0-11.34A5.52,5.52,0,0,1,57.82,45H75.93v2.56H57.81A5.7,5.7,0,0,1,52.33,52Zm0-2.74a3.43,3.43,0,1,0-.1,0h0.1Z" transform="translate(-0.02 0)"/>
  </g>
</svg>
