<svg xmlns="http://www.w3.org/2000/svg" viewBox="0 0 153.48 153.3"><defs><style>.cls-1{fill:#464646;}</style></defs><title>contacto</title><g id="Capa_2" data-name="Capa 2"><g id="Ebene_1" data-name="Ebene 1"><path class="cls-1" d="M120,123.79H84.3v-5h35c11.32-3.58,11.68-18.19,11.68-18.34V59.2a54.2,54.2,0,1,0-108.39,0V95.86h-5V59.2a59.2,59.2,0,1,1,118.39,0v41.29a32.57,32.57,0,0,1-2,9.79c-2.59,6.92-7.3,11.56-13.62,13.41Z"/><path class="cls-1" d="M76.74,134a12.72,12.72,0,1,1,12.72-12.72A12.73,12.73,0,0,1,76.74,134Zm0-20.43a7.72,7.72,0,1,0,7.72,7.71A7.73,7.73,0,0,0,76.74,113.58Z"/><path class="cls-1" d="M18.15,98.36H7.4A7.41,7.41,0,0,1,0,91V68.83a7.41,7.41,0,0,1,7.4-7.39H18.15a4.44,4.44,0,0,1,3.38,1.28c1.28,1.36,1.17,3.15,1.07,4.73,0,.43-.05.9-.05,1.38V91c0,.49,0,1,.05,1.39.1,1.58.21,3.36-1.07,4.73A4.44,4.44,0,0,1,18.15,98.36ZM7.4,66.44A2.4,2.4,0,0,0,5,68.83V91a2.4,2.4,0,0,0,2.4,2.4H17.65c0-.23,0-.48,0-.7,0-.53-.06-1.1-.06-1.7V68.83c0-.59,0-1.16.06-1.69,0-.22,0-.47,0-.7Z"/><path class="cls-1" d="M146.09,98.36H135.34A4.42,4.42,0,0,1,132,97.08c-1.29-1.37-1.18-3.15-1.08-4.73,0-.43.06-.9.06-1.39V68.83c0-.48,0-1-.06-1.38-.1-1.58-.21-3.37,1.08-4.73a4.42,4.42,0,0,1,3.38-1.28h10.75a7.4,7.4,0,0,1,7.39,7.39V91A7.4,7.4,0,0,1,146.09,98.36Zm-10.26-5h10.26a2.39,2.39,0,0,0,2.39-2.4V68.83a2.39,2.39,0,0,0-2.39-2.39H135.83c0,.23,0,.48,0,.7,0,.53.07,1.1.07,1.69V91c0,.6,0,1.17-.07,1.7C135.86,92.88,135.84,93.13,135.83,93.36Z"/><path class="cls-1" d="M76.63,153.3a47,47,0,0,1-46.95-47v-.06l.82-35.88h36c15.57,0,22.71-27.56,22.78-27.84l2.78-11,2.1,11.13c4.9,25.83,27,29,27.23,29l2.17.29v34.31A47,47,0,0,1,76.63,153.3ZM34.68,106.38a42,42,0,0,0,83.9,0V76.27A38.72,38.72,0,0,1,91.51,51.73c-3.74,9.38-11.63,23.68-25,23.68H35.38Z"/></g></g></svg>