<svg xmlns="http://www.w3.org/2000/svg" width="93.856" height="93.722" viewBox="0 0 93.856 93.722"><defs><style>.a{fill:#012e5e;}</style></defs><g transform="translate(0 0)"><g transform="translate(0 0)"><path class="a" d="M80.2,75.681H58.374V72.624h21.4c6.921-2.189,7.141-11.121,7.141-11.212V36.193a33.134,33.134,0,1,0-66.269,0l0,22.413H17.59V36.193a36.191,36.191,0,1,1,72.382,0l0,25.243a19.912,19.912,0,0,1-1.223,5.985c-1.583,4.231-4.463,7.067-8.327,8.2Z" transform="translate(-6.836 0)"/><path class="a" d="M71.8,124.113a7.777,7.777,0,1,1,7.777-7.777A7.777,7.777,0,0,1,71.8,124.113Zm0-12.49a4.7,4.7,0,1,1,0,.006Z" transform="translate(-24.881 -42.19)"/><path class="a" d="M11.1,84.009H4.524A4.53,4.53,0,0,1,0,79.509V65.955a4.53,4.53,0,0,1,4.524-4.518H11.1a2.714,2.714,0,0,1,2.066.783,3.6,3.6,0,0,1,.654,2.892c0,.263-.031.55-.031.844V79.509a7.346,7.346,0,0,0,.031.85,3.6,3.6,0,0,1-.654,2.892A2.714,2.714,0,0,1,11.1,84.009ZM4.524,64.494a1.467,1.467,0,0,0-1.467,1.461V79.509a1.467,1.467,0,0,0,1.467,1.467h6.266v-.428c0-.324-.037-.673-.037-1.039V65.955a9.387,9.387,0,0,1,.037-1.033v-.428Z" transform="translate(0 -23.875)"/><path class="a" d="M140.173,84.008H133.6a2.7,2.7,0,0,1-2.042-.783,3.582,3.582,0,0,1-.66-2.892c0-.263.037-.55.037-.85V65.955a6.041,6.041,0,0,0-.037-.844,3.577,3.577,0,0,1,.66-2.892,2.7,2.7,0,0,1,2.066-.783H140.2a4.524,4.524,0,0,1,4.518,4.518V79.509a4.524,4.524,0,0,1-4.542,4.5ZM133.9,80.952h6.273a1.461,1.461,0,0,0,1.461-1.467V65.955a1.461,1.461,0,0,0-1.461-1.461H133.9v.428c0,.324.043.673.043,1.033V79.509a8.1,8.1,0,0,1-.043,1.039A2.215,2.215,0,0,1,133.9,80.952Z" transform="translate(-50.859 -23.875)"/><path class="a" d="M58.383,105.972a28.734,28.734,0,0,1-28.7-28.734V77.2l.5-21.936H52.19c9.519,0,13.884-16.849,13.927-17.02l1.7-6.725,1.284,6.8c3,15.791,16.507,17.73,16.647,17.73l1.327.177V77.207A28.734,28.734,0,0,1,58.383,105.972ZM32.737,77.287a25.677,25.677,0,0,0,51.293,0V58.878a23.672,23.672,0,0,1-16.55-15C65.194,49.61,60.37,58.353,52.2,58.353H33.165Z" transform="translate(-11.535 -12.25)"/></g></g></svg>