<svg xmlns="http://www.w3.org/2000/svg" width="17.626" height="13.22" viewBox="0 0 17.626 13.22"><defs><style>.a{fill:#012e5e;}</style></defs><path class="a" d="M17.292,68.365a.207.207,0,0,1,.334.162v7.04a1.653,1.653,0,0,1-1.652,1.652H1.652A1.653,1.653,0,0,1,0,75.567V68.53a.206.206,0,0,1,.334-.162c.771.6,1.794,1.36,5.305,3.911.726.53,1.952,1.646,3.174,1.639,1.229.01,2.479-1.129,3.178-1.639C15.5,69.728,16.521,68.964,17.292,68.365ZM8.813,72.813c.8.014,1.949-1.005,2.527-1.425,4.568-3.315,4.916-3.6,5.969-4.431a.824.824,0,0,0,.317-.651v-.654A1.653,1.653,0,0,0,15.974,64H1.652A1.653,1.653,0,0,0,0,65.652v.654a.829.829,0,0,0,.317.651c1.053.823,1.4,1.115,5.969,4.431C6.865,71.808,8.014,72.827,8.813,72.813Z" transform="translate(0 -64)"/></svg>