<svg xmlns="http://www.w3.org/2000/svg" viewBox="0 0 182.23 232.48"><defs><style>.cls-1{fill:#1d1d1b;}</style></defs><title>ficha</title><g id="Capa_2" data-name="Capa 2"><g id="Ebene_1" data-name="Ebene 1"><path class="cls-1" d="M11.79,0V5H129.64l47.59,46.45V220.69a6.8,6.8,0,0,1-6.79,6.79H11.79A6.8,6.8,0,0,1,5,220.69V11.79A6.8,6.8,0,0,1,11.79,5V0m0,0A11.79,11.79,0,0,0,0,11.79v208.9a11.79,11.79,0,0,0,11.79,11.79H170.44a11.79,11.79,0,0,0,11.79-11.79V49.34L131.68,0Z"/><path class="cls-1" d="M144.39,80.6H35.72a2.5,2.5,0,0,1,0-5H144.39a2.5,2.5,0,0,1,0,5Z"/><path class="cls-1" d="M144.39,108.14H35.72a2.5,2.5,0,0,1,0-5H144.39a2.5,2.5,0,0,1,0,5Z"/><path class="cls-1" d="M144.39,137.81H35.72a2.5,2.5,0,0,1,0-5H144.39a2.5,2.5,0,0,1,0,5Z"/><path class="cls-1" d="M144.39,165.36H35.72a2.5,2.5,0,0,1,0-5H144.39a2.5,2.5,0,0,1,0,5Z"/><path class="cls-1" d="M135.77,11.31l33.25,32-33.25.61V11.31M132.15.88l-1.38.94V49l50.42-.94L132.15.88Z"/></g></g></svg>