<svg xmlns="http://www.w3.org/2000/svg" width="14.25" height="19" viewBox="0 0 14.25 19"><defs><style>.a{fill:#00aad2;}</style></defs><path class="a" d="M8.312,5.047V0H.891A.888.888,0,0,0,0,.891V18.109A.888.888,0,0,0,.891,19H13.359a.888.888,0,0,0,.891-.891V5.937H9.2A.893.893,0,0,1,8.312,5.047Zm2.837,7.843L7.571,16.442a.633.633,0,0,1-.892,0L3.1,12.89a.594.594,0,0,1,.417-1.015H5.937V8.906a.594.594,0,0,1,.594-.594H7.719a.594.594,0,0,1,.594.594v2.969h2.419a.594.594,0,0,1,.418,1.015ZM13.99,3.9,10.357.26A.89.89,0,0,0,9.726,0H9.5V4.75h4.75V4.524A.888.888,0,0,0,13.99,3.9Z"/></svg>