<svg xmlns="http://www.w3.org/2000/svg" viewBox="0 0 41.8 41.8"><defs><style>.cls-1{fill:#fff;}</style></defs><title>Garantia</title><g id="Capa_2" data-name="Capa 2"><g id="Capa_1-2" data-name="Capa 1"><g id="Símbolo_4_1" data-name="Símbolo 4 1"><g id="_15" data-name="15"><g id="Elipse_3" data-name="Elipse 3"><path class="cls-1" d="M20.9,41.8A20.9,20.9,0,1,1,41.8,20.9,20.93,20.93,0,0,1,20.9,41.8ZM20.9,2A18.9,18.9,0,1,0,39.8,20.9,18.92,18.92,0,0,0,20.9,2Z"/></g><g id="Trazado_73" data-name="Trazado 73"><path class="cls-1" d="M17.8,29.9a1.05,1.05,0,0,1-.71-.29l-6.7-6.7a1,1,0,0,1,1.42-1.42l5.91,5.92,12.2-15.14a1,1,0,0,1,1.56,1.26l-12.9,16a1,1,0,0,1-.73.37Z"/></g></g></g></g></g></svg>