<svg xmlns="http://www.w3.org/2000/svg" viewBox="0 0 66.68 48.62"><defs><style>.cls-1{fill:#fff;}</style></defs><title>garantia extendida</title><g id="Capa_2" data-name="Capa 2"><g id="Capa_1-2" data-name="Capa 1"><polygon class="cls-1" points="24.18 18.53 24.18 18.53 24.17 18.53 24.18 18.53"/><path class="cls-1" d="M30.29,17.27a.81.81,0,0,0-.91-.67c-6.77,1-17.79-.7-17.9-.72a.8.8,0,0,0-.25,1.58,95.16,95.16,0,0,0,13,1.07,36.64,36.64,0,0,0,5.44-.35A.79.79,0,0,0,30.29,17.27Z"/><path class="cls-1" d="M30.4,40.62c-16.64-.08-16.95,0-17,0a.8.8,0,0,0-.67.81h0a.8.8,0,0,0,.83.77h.1c.24,0,1.63,0,3.6,0a.86.86,0,0,0-.05.23,4.75,4.75,0,0,1-3,4.57c-.52,0-2.67.11-4.78,0-1.52-.1-2.62-2.23-3-3.19V39.86A9.86,9.86,0,0,0,5.73,36a15.57,15.57,0,0,1-1.25-2.91L4.61,24v0a2.35,2.35,0,0,0-1.72-2.26A2.3,2.3,0,0,1,1.61,21V17.32c0-1,.48-1.15.64-1.18L6.54,16a.81.81,0,0,0,.64-.32L14,6.25a11.64,11.64,0,0,1,5-4.14,6.47,6.47,0,0,1,2.38-.51H40.71a.8.8,0,0,0,.8-.8h0a.8.8,0,0,0-.8-.8H21.5c-.43,0-4.9,0-8.77,5.31C9.55,9.69,6.9,13.37,6.12,14.44l-4,.1H2.09A2.54,2.54,0,0,0,0,17.31V21.2a.72.72,0,0,0,.11.41,3.86,3.86,0,0,0,2.4,1.65c.39.09.48.66.48.76l-.15,9.14a.93.93,0,0,0,0,.24,17.64,17.64,0,0,0,1.47,3.4,8.66,8.66,0,0,1,.44,3.07v4.06a.69.69,0,0,0,0,.25c.06.17,1.44,4.22,4.43,4.38.85.06,1.69.06,2.44.06,1.45,0,2.55-.06,2.62,0l.2,0a6.37,6.37,0,0,0,4.22-6.12h0a.85.85,0,0,0,0-.23c3.49,0,8.1,0,11.68,0h0a.8.8,0,0,0,.8-.8h0A.8.8,0,0,0,30.4,40.62Z"/><path class="cls-1" d="M21.87,31.15A17.33,17.33,0,0,0,14,26.54,5.3,5.3,0,0,0,9.76,27a4.36,4.36,0,0,0-1.82,2.68l0,.1v.1c.32,3.89,2.77,4.42,2.87,4.44h.1c.23,0,4.8.37,7.73.37.58,0,1.09,0,1.48,0a2.33,2.33,0,0,0,2.07-1.12,2.48,2.48,0,0,0-.2-2.23l0-.07ZM20,33c-2.19.18-8.18-.27-8.89-.32-.2-.07-1.33-.54-1.55-2.88a2.71,2.71,0,0,1,1.11-1.54,3.76,3.76,0,0,1,3-.23,16.34,16.34,0,0,1,7,4.07,1,1,0,0,1,.12.64C20.72,32.85,20.51,33,20,33Z"/><path class="cls-1" d="M66.67,21.31c0-.9,0-1.79,0-2.69V10.4c0-2.78-.16-3.08-2.5-4.61l-.05,0A25.14,25.14,0,0,0,51.55,2,30.79,30.79,0,0,0,39.8,3.43a19.47,19.47,0,0,0-6.62,3.66,2.34,2.34,0,0,0-.82,1.85v9.88c0,2.95,0,5.91,0,8.86a17.13,17.13,0,0,0,3.24,10.11A24.61,24.61,0,0,0,41,43.15a41.48,41.48,0,0,0,7.76,4.45,2,2,0,0,0,.76.16,1.71,1.71,0,0,0,.67-.14,35.56,35.56,0,0,0,10.87-7.07,17.92,17.92,0,0,0,5.59-13.29C66.66,25.28,66.66,23.26,66.67,21.31ZM42.22,41.55a22.61,22.61,0,0,1-5-4.93,15,15,0,0,1-2.87-8.95q0-4.43,0-8.86,0-4.93,0-9.88c0-.2,0-.25.13-.32a17.3,17.3,0,0,1,6-3.29A28.25,28.25,0,0,1,49,3.92V45.48A39.31,39.31,0,0,1,42.22,41.55ZM64.69,27.29a15.69,15.69,0,0,1-5,11.84,33.82,33.82,0,0,1-9.62,6.38V3.93c.45,0,.9,0,1.36,0A23.21,23.21,0,0,1,63.05,7.43l0,0a5.47,5.47,0,0,1,1.46,1.12,5.56,5.56,0,0,1,.14,1.82v8.22c0,.9,0,1.79,0,2.69C64.67,23.26,64.67,25.29,64.69,27.29Z"/></g></g></svg>