<svg xmlns="http://www.w3.org/2000/svg" width="17.527" height="13.629" viewBox="0 0 17.527 13.629"><defs><style>.a{fill:#f3f3f3;}</style></defs><path class="a" d="M8.516,35.586l-5.61,4.62v4.987a.487.487,0,0,0,.487.487l3.41-.009a.487.487,0,0,0,.484-.487V42.272a.487.487,0,0,1,.487-.487H9.721a.487.487,0,0,1,.487.487v2.91a.487.487,0,0,0,.487.488l3.408.009a.487.487,0,0,0,.487-.487V40.2L8.981,35.586a.371.371,0,0,0-.466,0Zm8.861,3.14-2.544-2.1V32.415a.365.365,0,0,0-.365-.365h-1.7a.365.365,0,0,0-.365.365v2.209L9.675,32.383a1.46,1.46,0,0,0-1.856,0l-7.7,6.343a.365.365,0,0,0-.049.514l.776.943a.365.365,0,0,0,.515.05l7.157-5.895a.371.371,0,0,1,.466,0l7.157,5.895a.365.365,0,0,0,.514-.049l.776-.943a.365.365,0,0,0-.052-.515Z" transform="translate(0.015 -32.05)"/></svg>