<svg xmlns="http://www.w3.org/2000/svg" viewBox="0 0 145.4 148.72"><title>icono_beneficiosdelprograma</title><g id="Capa_2" data-name="Capa 2"><g id="Ebene_1" data-name="Ebene 1"><path d="M128.83,148.72H16.09a1.86,1.86,0,0,1-.48-.06c-.56,0-1.13.06-1.72.06-9.5,0-13.23-9.79-13.87-15a1.1,1.1,0,0,1,0-.25V46.64a2,2,0,0,1,2-2H13.89a2,2,0,0,1,0,4H4v84.73c.18,1.25,1.9,11.35,9.89,11.35,7.66,0,11.54-3.88,11.54-11.54V9.19a9.05,9.05,0,0,1,8.81-9c20.77-.42,83.7,0,102.49.1A8.72,8.72,0,0,1,145.36,9V126.17c.07,1.12.58,11.66-5.26,18A14.72,14.72,0,0,1,128.83,148.72Zm-103.53-4H128.83a10.73,10.73,0,0,0,8.34-3.31c4.87-5.25,4.2-14.92,4.19-15V9a4.71,4.71,0,0,0-4.66-4.7c-18.78-.13-81.65-.53-102.38-.1a5,5,0,0,0-4.89,5v124C29.43,138.16,28,142.07,25.3,144.72Z"/><path d="M120.68,49.64H49.78a2,2,0,0,1-2-2v-20a2,2,0,0,1,2-2h70.9a2,2,0,0,1,2,2v20A2,2,0,0,1,120.68,49.64Zm-68.9-4h66.9v-16H51.78Z"/><path d="M121.78,86.85H92.5a2,2,0,0,1-2-2V64.37a2,2,0,0,1,2-2h29.28a2,2,0,0,1,2,2V84.85A2,2,0,0,1,121.78,86.85Zm-27.28-4h25.28V66.37H94.5Z"/><path d="M80.83,66.37h-31a2,2,0,0,1,0-4H80.83a2,2,0,0,1,0,4Z"/><path d="M80.83,86.85h-31a2,2,0,0,1,0-4H80.83a2,2,0,1,1,0,4Z"/><path d="M121.78,104.68h-72a2,2,0,0,1,0-4h72a2,2,0,0,1,0,4Z"/><path d="M121.78,121.86h-72a2,2,0,1,1,0-4h72a2,2,0,0,1,0,4Z"/></g></g></svg>