<svg id="Capa_1" data-name="Capa 1" xmlns="http://www.w3.org/2000/svg" viewBox="0 0 91.67 89.59">
  <defs>
    <style>
      .cls-1 {
        fill: #f4f4f4;
      }
    </style>
  </defs>
  <title>icono_beneficiosdelprograma_bn</title>
  <g>
    <path class="cls-1" d="M81.22,89.58H10.14a1.22,1.22,0,0,1-.3,0c-0.35,0-.71,0-1.09,0-6,0-8.34-5.9-8.75-9a0.63,0.63,0,0,1,0-.15V28.09a1.23,1.23,0,0,1,1.26-1.2H8.75a1.21,1.21,0,0,1,.12,2.41H2.51v51c0.11,0.75,1.2,6.84,6.24,6.84,4.83,0,7.28-2.34,7.28-7V5.53A5.58,5.58,0,0,1,21.58.11c13.1-.25,52.78,0,64.62.06a5.38,5.38,0,0,1,5.44,5.25V76c0,0.68.37,7-3.32,10.84a9.51,9.51,0,0,1-7.11,2.74h0ZM15.94,87.17H81.22a6.94,6.94,0,0,0,5.26-2c3.07-3.16,2.65-9,2.64-9V5.42a2.9,2.9,0,0,0-2.94-2.83C74.35,2.51,34.7,2.27,21.63,2.53a3.08,3.08,0,0,0-3.08,3V80.23a9.14,9.14,0,0,1-2.6,6.94h0Z" transform="translate(0 0)"/>
    <path class="cls-1" d="M76.09,29.9H31.38a1.23,1.23,0,0,1-1.26-1.2V16.65a1.23,1.23,0,0,1,1.26-1.2H76.09a1.23,1.23,0,0,1,1.26,1.2v12a1.23,1.23,0,0,1-1.26,1.21h0ZM32.64,27.49H74.82V17.85H32.64v9.64Z" transform="translate(0 0)"/>
    <path class="cls-1" d="M76.78,52.31H58.32a1.23,1.23,0,0,1-1.26-1.2V38.77a1.23,1.23,0,0,1,1.26-1.2H76.78A1.23,1.23,0,0,1,78,38.77V51.11A1.23,1.23,0,0,1,76.78,52.31ZM59.58,49.9H75.52V40H59.58V49.9Z" transform="translate(0 0)"/>
    <path class="cls-1" d="M51,40H31.41a1.21,1.21,0,0,1-.12-2.41H51A1.21,1.21,0,0,1,51.08,40H51Z" transform="translate(0 0)"/>
    <path class="cls-1" d="M51,52.31H31.41a1.21,1.21,0,1,1-.12-2.41H51a1.21,1.21,0,1,1,.12,2.41H51Z" transform="translate(0 0)"/>
    <path class="cls-1" d="M76.78,63.05H31.38a1.21,1.21,0,1,1-.12-2.41H76.78a1.21,1.21,0,1,1,.12,2.41H76.78Z" transform="translate(0 0)"/>
    <path class="cls-1" d="M76.78,73.4H31.38A1.21,1.21,0,1,1,31.26,71H76.78a1.21,1.21,0,1,1,.12,2.41H76.78Z" transform="translate(0 0)"/>
  </g>
</svg>
