<svg xmlns="http://www.w3.org/2000/svg" width="91.673" height="89.588" viewBox="0 0 91.673 89.588"><defs><style>.a{fill:#012e5e;}</style></defs><g transform="translate(0 0)"><g transform="translate(0)"><path class="a" d="M81.237,89.587H10.15a1.225,1.225,0,0,1-.3-.036c-.353,0-.713.036-1.085.036-5.99,0-8.342-5.9-8.746-9.036a.633.633,0,0,1,0-.151V28.1a1.234,1.234,0,0,1,1.261-1.2H8.763a1.206,1.206,0,1,1,0,2.409H2.527V80.34c.113.753,1.2,6.837,6.236,6.837,4.83,0,7.276-2.337,7.276-6.951V5.538A5.577,5.577,0,0,1,21.594.117c13.1-.253,52.776,0,64.624.06A5.377,5.377,0,0,1,91.66,5.424V76c.044.675.366,7.024-3.317,10.843a9.51,9.51,0,0,1-7.106,2.741Zm-65.28-2.409h65.28A6.935,6.935,0,0,0,86.5,85.183c3.071-3.162,2.648-8.987,2.642-9.035V5.424A2.9,2.9,0,0,0,86.2,2.593c-11.841-.078-51.483-.319-64.554-.06a3.081,3.081,0,0,0-3.083,3.012V80.238a9.141,9.141,0,0,1-2.6,6.939Z" transform="translate(-0.013 -0.007)"/><path class="a" d="M93.746,40.1H49.041a1.234,1.234,0,0,1-1.261-1.2V26.845a1.234,1.234,0,0,1,1.261-1.2H93.746a1.234,1.234,0,0,1,1.261,1.2V38.892A1.234,1.234,0,0,1,93.746,40.1ZM50.3,37.687H92.485V28.049H50.3Z" transform="translate(-17.661 -10.199)"/><path class="a" d="M110.223,77.116H91.761a1.234,1.234,0,0,1-1.261-1.2V63.575a1.234,1.234,0,0,1,1.261-1.2h18.462a1.234,1.234,0,0,1,1.261,1.2V75.911A1.234,1.234,0,0,1,110.223,77.116Zm-17.2-2.409h15.94V64.779H93.022Z" transform="translate(-33.444 -24.804)"/><path class="a" d="M68.638,64.779H49.091a1.206,1.206,0,1,1,0-2.409H68.638a1.206,1.206,0,1,1,0,2.409Z" transform="translate(-17.68 -24.804)"/><path class="a" d="M68.638,85.259H49.091a1.206,1.206,0,1,1,0-2.409H68.638a1.206,1.206,0,1,1,0,2.409Z" transform="translate(-17.68 -32.948)"/><path class="a" d="M94.44,103.089h-45.4a1.206,1.206,0,1,1,0-2.409h45.4a1.206,1.206,0,1,1,0,2.409Z" transform="translate(-17.661 -40.038)"/><path class="a" d="M94.44,120.269h-45.4a1.206,1.206,0,1,1,0-2.409h45.4a1.206,1.206,0,1,1,0,2.409Z" transform="translate(-17.661 -46.869)"/></g></g></svg>