<svg xmlns="http://www.w3.org/2000/svg" viewBox="0 0 571.9 584.52"><title>Recurso 3</title><g id="Capa_2" data-name="Capa 2"><g id="Ebene_1" data-name="Ebene 1"><path d="M53,584.52a10.5,10.5,0,0,1-7.42-17.92l67.67-67.68A10.51,10.51,0,0,1,127,498,265,265,0,0,0,550.9,286,265,265,0,0,0,98.6,98.6,265.07,265.07,0,0,0,60.06,424.49a10.5,10.5,0,1,1-17.89,11,286,286,0,1,1,79.62,84.63L60.46,581.45A10.47,10.47,0,0,1,53,584.52Z"/><path d="M265.18,405.57q-9.6-10.56-13-30.24a71,71,0,0,1-1.2-13q0-20.4,12.48-38.17,10.56-15.12,41.28-39.84,26.64-24.24,34.81-36,12.24-17,12.24-37a75.57,75.57,0,0,0-1-11.76,64.35,64.35,0,0,0-27.37-43q-17.76-12-37.44-12a74.37,74.37,0,0,0-11.76,1q-26.4,4.8-42,27.12-12.72,18-12.72,36.25a47.67,47.67,0,0,0,1,9.36l-20.4-1.44a49.31,49.31,0,0,1-1-9.84q0-21.62,16.56-45.37,19.92-29,55.2-35.28A92.4,92.4,0,0,1,287,125q25.44,0,47.77,15.36,28.8,20.4,35,55.92a87.28,87.28,0,0,1,1.44,15.61q0,25.2-15.36,48Q342.46,278.6,308.14,306q-22.08,19.94-28.56,29.53a47.25,47.25,0,0,0-8.88,27.6,56.91,56.91,0,0,0,.72,8.88q2.16,11.52,7.2,18Zm23.88,29.52a18.83,18.83,0,0,1,0,26.88,18.42,18.42,0,0,1-13.32,5.53A18.7,18.7,0,0,1,262.18,462a18.83,18.83,0,0,1,0-26.88,18.69,18.69,0,0,1,13.56-5.52A18.41,18.41,0,0,1,289.06,435.09Z"/></g></g></svg>