<svg xmlns="http://www.w3.org/2000/svg" width="94" height="96.064" viewBox="0 0 94 96.064"><defs><style>.a{fill:#012e5e;}</style></defs><g transform="translate(0 0)"><g transform="translate(0 0)"><path class="a" d="M8.643,95.978a1.725,1.725,0,0,1-1.219-2.945l11.12-11.121a1.727,1.727,0,0,1,2.26-.151,43.546,43.546,0,1,0-11-12.079,1.726,1.726,0,0,1-2.94,1.808A47,47,0,1,1,19.948,85.4L9.869,95.473A1.721,1.721,0,0,1,8.643,95.978Z" transform="translate(0.079 0.086)"/><path class="a" d="M209.959,171.1a9.69,9.69,0,0,1-2.136-4.969,11.665,11.665,0,0,1-.2-2.136,10.708,10.708,0,0,1,2.051-6.272,36.987,36.987,0,0,1,6.784-6.547,42.746,42.746,0,0,0,5.72-5.916,10.189,10.189,0,0,0,2.011-6.08,12.418,12.418,0,0,0-.164-1.932,10.574,10.574,0,0,0-4.5-7.066,10.814,10.814,0,0,0-6.153-1.972,12.222,12.222,0,0,0-1.933.164,10.4,10.4,0,0,0-6.9,4.456,10.256,10.256,0,0,0-2.09,5.957,7.836,7.836,0,0,0,.164,1.538l-3.352-.237a8.1,8.1,0,0,1-.164-1.617,13.153,13.153,0,0,1,2.721-7.455,13.425,13.425,0,0,1,9.071-5.8,15.185,15.185,0,0,1,2.652-.223,13.924,13.924,0,0,1,13.6,11.713,14.343,14.343,0,0,1,.237,2.565,13.894,13.894,0,0,1-2.524,7.887,42.675,42.675,0,0,1-7.84,7.577,32.889,32.889,0,0,0-4.693,4.852,7.764,7.764,0,0,0-1.459,4.535,9.349,9.349,0,0,0,.118,1.459,6.829,6.829,0,0,0,1.183,2.958Zm3.924,4.851a3.094,3.094,0,0,1,0,4.417,3.027,3.027,0,0,1-2.189.909,3.114,3.114,0,1,1,0-6.228A3.025,3.025,0,0,1,213.883,175.954Z" transform="translate(-166.369 -104.445)"/></g></g></svg>