<svg xmlns="http://www.w3.org/2000/svg" width="17.5" height="17.5" viewBox="0 0 17.5 17.5"><defs><style>.a{fill:#012e5e;}</style></defs><path class="a" d="M16.75,8a8.75,8.75,0,1,0,8.75,8.75A8.751,8.751,0,0,0,16.75,8Zm0,3.881a1.482,1.482,0,1,1-1.482,1.482A1.482,1.482,0,0,1,16.75,11.881Zm1.976,8.962a.423.423,0,0,1-.423.423H15.2a.423.423,0,0,1-.423-.423V20a.423.423,0,0,1,.423-.423h.423V17.315H15.2a.423.423,0,0,1-.423-.423v-.847a.423.423,0,0,1,.423-.423h2.258a.423.423,0,0,1,.423.423v3.528H18.3a.423.423,0,0,1,.423.423Z" transform="translate(-8 -8)"/></svg>