<svg id="Capa_1" data-name="Capa 1" xmlns="http://www.w3.org/2000/svg" viewBox="0 0 66.01 87.14">
  <defs>
    <style>
      .cls-1 {
        fill: #012e5e;
      }
    </style>
  </defs>
  <title>pin-color</title>
  <path class="cls-1" d="M12.95,59.55a30.35,30.35,0,0,1,7.68,8.18,183.59,183.59,0,0,1,9.59,17.61,3.31,3.31,0,0,0,2.73,1.79h0a3,3,0,0,0,2.74-1.76,191,191,0,0,1,9.78-18,30.27,30.27,0,0,1,7.24-7.83A32.62,32.62,0,0,0,66,33.13,33.15,33.15,0,0,0,32.85,0q-1.12,0-2.24.08A32.93,32.93,0,0,0,.09,31.37,32.22,32.22,0,0,0,12.95,59.55Zm-10.37-28A30,30,0,0,1,30.58,3h2.15a29.84,29.84,0,0,1,20.54,8,30.31,30.31,0,0,1-2.54,46.37,33.14,33.14,0,0,0-8,8.61,198.51,198.51,0,0,0-10,18.39,0.19,0.19,0,0,1-.18.2h0c-0.2,0-.2,0-0.2-0.2a153.62,153.62,0,0,0-9.78-18,32.72,32.72,0,0,0-8.22-9A32,32,0,0,1,2.63,31.57Z" transform="translate(0 0.01)"/>
  <path class="cls-1" d="M32.95,54.66A21.72,21.72,0,1,0,11.24,32.93h0A21.79,21.79,0,0,0,32.95,54.66Zm0-40.3A18.78,18.78,0,1,1,14.17,33.14h0A18.79,18.79,0,0,1,32.95,14.35h0Z" transform="translate(0 0.01)"/>
  <path class="cls-1" d="M38.43,27.46V21a2,2,0,0,0-2-2H29.24a2,2,0,0,0-2,2v6.46H20.82a2,2,0,0,0-2,2v7.24a2,2,0,0,0,2,2h6.46v6.46a2,2,0,0,0,2,2h7.24a2,2,0,0,0,2-2V38.61h6.65a2,2,0,0,0,2-2V29.42a2,2,0,0,0-2-2H38.43v0Zm7.24,2V36.7a0.52,0.52,0,0,1-.44.59H37.84a0.52,0.52,0,0,0-.59.59v7.24a0.52,0.52,0,0,1-.44.59H29.43a0.52,0.52,0,0,1-.59-0.59V37.83a0.52,0.52,0,0,0-.44-0.59H21a0.52,0.52,0,0,1-.59-0.59V29.42a0.52,0.52,0,0,1,.44-0.59h7.39a0.52,0.52,0,0,0,.59-0.59V21a0.52,0.52,0,0,1,.44-0.59h7.39a0.52,0.52,0,0,1,.59.59v7.24a0.52,0.52,0,0,0,.44.59H45.1a0.62,0.62,0,0,1,.57.58v0Z" transform="translate(0 0.01)"/>
</svg>
