<svg id="Capa_1" data-name="Capa 1" xmlns="http://www.w3.org/2000/svg" viewBox="0 0 66.01 87.13">
  <defs>
    <style>
      .cls-1 {
        fill: #fff;
      }
    </style>
  </defs>
  <title>pin</title>
  <path class="cls-1" d="M25,60.82A30.35,30.35,0,0,1,32.68,69a183.59,183.59,0,0,1,9.59,17.61A3.31,3.31,0,0,0,45,88.4h0a3,3,0,0,0,2.74-1.76,191,191,0,0,1,9.78-18,30.27,30.27,0,0,1,7.24-7.83,32.62,32.62,0,0,0,13.3-26.41A33.15,33.15,0,0,0,42.66,1.34a32.93,32.93,0,0,0-30.52,31.3A32.22,32.22,0,0,0,25,60.82Zm-10.37-28a30,30,0,0,1,28-28.56h2.15a29.84,29.84,0,0,1,20.54,8,30.31,30.31,0,0,1-2.54,46.37,33.14,33.14,0,0,0-8,8.61,198.51,198.51,0,0,0-10,18.39,0.19,0.19,0,0,1-.2.2c-0.2,0-.2,0-0.2-0.2a153.62,153.62,0,0,0-9.78-18,32.72,32.72,0,0,0-8.22-9A32,32,0,0,1,14.68,32.84Z" transform="translate(-12.05 -1.27)"/>
  <path class="cls-1" d="M45,55.93A21.72,21.72,0,1,0,23.29,34.21,21.79,21.79,0,0,0,45,55.93Zm0-40.3A18.78,18.78,0,1,1,26.22,34.41,18.79,18.79,0,0,1,45,15.62Z" transform="translate(-12.05 -1.27)"/>
  <path class="cls-1" d="M50.48,28.73V22.28a2,2,0,0,0-2-2H41.29a2,2,0,0,0-2,2v6.46H32.87a2,2,0,0,0-2,2v7.24a2,2,0,0,0,2,2h6.46v6.46a2,2,0,0,0,2,2h7.24a2,2,0,0,0,2-2V39.88h6.65a2,2,0,0,0,2-2V30.69a2,2,0,0,0-2-2H50.48Zm7.24,2v7.24a0.52,0.52,0,0,1-.59.59H49.89a0.52,0.52,0,0,0-.59.59v7.24a0.52,0.52,0,0,1-.59.59H41.48a0.52,0.52,0,0,1-.59-0.59V39.1a0.52,0.52,0,0,0-.59-0.59H33.07a0.52,0.52,0,0,1-.59-0.59V30.69a0.52,0.52,0,0,1,.59-0.59h7.24a0.52,0.52,0,0,0,.59-0.59V22.28a0.52,0.52,0,0,1,.59-0.59h7.24a0.52,0.52,0,0,1,.59.59v7.24a0.52,0.52,0,0,0,.59.59h7.24A0.62,0.62,0,0,1,57.72,30.69Z" transform="translate(-12.05 -1.27)"/>
</svg>
