<svg xmlns="http://www.w3.org/2000/svg" width="88.141" height="88.264" viewBox="0 0 88.141 88.264"><defs><style>.a{fill:#012e5e;}</style></defs><g transform="translate(0 0)"><g transform="translate(0 0)"><path class="a" d="M57.4,60.84a3.2,3.2,0,0,1-2.947-4.409l6.071-15a1.515,1.515,0,0,1,.33-.5l29.51-28.991a2.811,2.811,0,0,1,1.992-.819h0a2.847,2.847,0,0,1,2,.855l8.057,8.169a2.829,2.829,0,0,1,0,3.972L72.873,54.7a1.426,1.426,0,0,1-.507.342L58.6,60.61A3.277,3.277,0,0,1,57.4,60.84Zm5.741-18.017L57.166,57.557a.259.259,0,0,0,.336.336l13.473-5.446,29.269-30.288-7.886-8.045Z" transform="translate(-22.263 -4.567)"/><path class="a" d="M73.337,78.167a1.468,1.468,0,0,1-1.32-.819l-3.23-6.483-5.051-2.982a1.473,1.473,0,1,1,1.491-2.54l5.422,3.242a1.456,1.456,0,0,1,.589.589l3.418,6.866a1.479,1.479,0,0,1-1.314,2.134Z" transform="translate(-25.857 -26.739)"/><path class="a" d="M133.5,16.379h0a1.485,1.485,0,0,1-1.043-.436L121.994,5.3a1.479,1.479,0,0,1-.424-1.079,1.5,1.5,0,0,1,.5-1.055l1.862-1.662a6.023,6.023,0,0,1,8.11.124L136.21,5.6a5.988,5.988,0,0,1,.112,8.546l-1.768,1.768A1.462,1.462,0,0,1,133.5,16.379ZM125.177,4.344l8.334,8.469.731-.725a3.006,3.006,0,0,0,.884-2.187,2.947,2.947,0,0,0-.943-2.163L130,3.766a3.059,3.059,0,0,0-4.126-.059Z" transform="translate(-49.919 -0.001)"/><path class="a" d="M63.806,94.494H15.518A15.536,15.536,0,0,1,0,78.976V30.688A15.536,15.536,0,0,1,15.518,15.17H50.392a1.473,1.473,0,1,1,0,2.947H15.518A12.589,12.589,0,0,0,2.947,30.688V78.976A12.589,12.589,0,0,0,15.518,91.547H63.806A12.583,12.583,0,0,0,76.378,78.976V41.621a1.473,1.473,0,0,1,2.947,0V78.976A15.536,15.536,0,0,1,63.806,94.494Z" transform="translate(0 -6.23)"/></g></g></svg>