<svg xmlns="http://www.w3.org/2000/svg" viewBox="0 0 149.58 149.76"><defs><style>.cls-1{fill:#464646;}</style></defs><title>registrar</title><g id="Capa_2" data-name="Capa 2"><g id="Ebene_1" data-name="Ebene 1"><path class="cls-1" d="M59.62,95.48a5.43,5.43,0,0,1-5-7.48L64.92,62.55a2.57,2.57,0,0,1,.56-.85l50.07-49.19a4.77,4.77,0,0,1,3.38-1.39h0a4.83,4.83,0,0,1,3.4,1.45L136,26.43a4.8,4.8,0,0,1,0,6.74L85.87,85.07a2.42,2.42,0,0,1-.86.58L61.66,95.09A5.56,5.56,0,0,1,59.62,95.48Zm9.74-30.57-10.14,25a.44.44,0,0,0,.57.57l22.86-9.24,49.66-51.39L118.93,16.2Z"/><path class="cls-1" d="M80.56,87.26a2.49,2.49,0,0,1-2.24-1.39l-5.48-11-8.57-5.06a2.5,2.5,0,1,1,2.53-4.31L76,71a2.47,2.47,0,0,1,1,1l5.8,11.65a2.51,2.51,0,0,1-2.23,3.62Z"/><path class="cls-1" d="M141.82,27.79h0a2.52,2.52,0,0,1-1.77-.74L122.29,9a2.51,2.51,0,0,1-.72-1.83,2.55,2.55,0,0,1,.84-1.79l3.16-2.82a10.22,10.22,0,0,1,13.76.21l7.08,6.73A10.16,10.16,0,0,1,146.6,24l-3,3A2.48,2.48,0,0,1,141.82,27.79ZM127.69,7.37l14.14,14.37,1.24-1.23a5.1,5.1,0,0,0,1.5-3.71,5,5,0,0,0-1.6-3.67l-7.09-6.74a5.19,5.19,0,0,0-7-.1Z"/><path class="cls-1" d="M108.26,149.76H26.33A26.36,26.36,0,0,1,0,123.43V41.5A26.36,26.36,0,0,1,26.33,15.17H85.5a2.5,2.5,0,0,1,0,5H26.33A21.36,21.36,0,0,0,5,41.5v81.93a21.36,21.36,0,0,0,21.33,21.33h81.93a21.35,21.35,0,0,0,21.33-21.33V60.05a2.5,2.5,0,1,1,5,0v63.38A26.36,26.36,0,0,1,108.26,149.76Z"/></g></g></svg>