<svg xmlns="http://www.w3.org/2000/svg" width="14.138" height="11.93" viewBox="0 0 14.138 11.93"><defs><style>.a{fill:#f3f3f3;}</style></defs><path class="a" d="M3.856,32.068a.331.331,0,0,0-.469,0L1.628,33.816,1,33.205a.331.331,0,0,0-.469,0L.1,33.639a.331.331,0,0,0,0,.469l1.314,1.309a.353.353,0,0,0,.486,0l.43-.431,1.994-1.993a.334.334,0,0,0,0-.469Zm0,4.4a.331.331,0,0,0-.469,0L1.628,38.223,1,37.613a.331.331,0,0,0-.469,0L.1,38.046a.331.331,0,0,0,0,.469l1.311,1.312a.353.353,0,0,0,.486,0l.434-.433L4.322,37.4a.331.331,0,0,0,0-.467ZM1.768,41.249a1.326,1.326,0,1,0,0,2.651,1.325,1.325,0,1,0,0-2.651Zm11.929.442H5.744a.442.442,0,0,0-.442.442v.884a.442.442,0,0,0,.442.442H13.7a.442.442,0,0,0,.442-.442v-.884A.442.442,0,0,0,13.7,41.691Zm0-8.836H5.744A.442.442,0,0,0,5.3,33.3v.884a.442.442,0,0,0,.442.442H13.7a.442.442,0,0,0,.442-.442V33.3A.442.442,0,0,0,13.7,32.855Zm0,4.418H5.744a.442.442,0,0,0-.442.442V38.6a.442.442,0,0,0,.442.442H13.7a.442.442,0,0,0,.442-.442v-.884A.442.442,0,0,0,13.7,37.273Z" transform="translate(-0.001 -31.971)"/></svg>