<svg xmlns="http://www.w3.org/2000/svg" width="15.71" height="17.954" viewBox="0 0 15.71 17.954"><defs><style>.a{fill:#012e5e;}</style></defs><path class="a" d="M15.149,1.122H10.941l-.33-.656A.842.842,0,0,0,9.857,0H5.849A.832.832,0,0,0,5.1.466l-.33.656H.561A.561.561,0,0,0,0,1.683V2.805a.561.561,0,0,0,.561.561H15.149a.561.561,0,0,0,.561-.561V1.683A.561.561,0,0,0,15.149,1.122ZM1.866,16.376a1.683,1.683,0,0,0,1.68,1.578h8.619a1.683,1.683,0,0,0,1.68-1.578l.743-11.888H1.122Z" transform="translate(0 0)"/></svg>